<svg xmlns="http://www.w3.org/2000/svg" width="11in" height="816" viewBox="0 0 110 85"><title>Island Explorer route map</title><defs><path id="a" d="M120.029 815.971h305.234v29.562H120.029z"/><path id="b" d="M120.029 815.971h305.234v29.562H120.029z"/><path id="c" d="M120.029 815.971h305.234v29.562H120.029z"/><path id="d" d="M120.029 815.971h305.234v29.562H120.029z"/><path id="e" d="M120.029 815.971h305.234v29.562H120.029z"/><path id="f" d="M120.029 815.971h305.234v29.562H120.029z"/><path id="g" d="M120.029 815.971h305.234v29.562H120.029z"/><path id="h" d="M120.029 815.971h305.234v29.562H120.029z"/><path id="i" d="M120.029 815.971h305.234v29.562H120.029z"/><path id="j" d="M120.029 815.971h305.234v29.562H120.029z"/><path id="k" d="M120.029 815.971h305.234v29.562H120.029z"/></defs><metadata/><path fill="#fff" d="M0 0h110v85H0z" paint-order="markers fill stroke"/><path fill="#e3f2f7" d="M0 32.669h19.169L51.832.006h31.33v15.998H40.5L0 56.504Z" paint-order="markers fill stroke"/><path fill="#e3f2f7" d="m83.83 16.67-.667-.666L82.829.005h5.333v37.997l.667.666H110v46.329H82.83l.333-8.332.666-.667z" paint-order="markers fill stroke"/><path fill="#e3f2f7" d="m33.5 51.334.668-.667h7.665l.667.667v24.664l.667.666H110v8.333L0 85V41.668h5.17v.333l-.666.667v33.33l.666.666h27.664l.667-.666z" paint-order="markers fill stroke"/><text xml:space="preserve" x="36.195" y="63.073" fill="#6eadc1" stroke-width=".104" font-family="sans-serif" font-size="1.25" font-weight="400" style="line-height:1.25;white-space:pre"><tspan><tspan font-family="Merriweather Sans" font-style="italic" style="-inkscape-font-specification:&quot;Merriweather Sans Italic&quot;;text-align:center">Somes
</tspan></tspan><tspan><tspan font-family="Merriweather Sans" font-style="italic" style="-inkscape-font-specification:&quot;Merriweather Sans Italic&quot;;text-align:center">Sound</tspan></tspan></text><text xml:space="preserve" x="7.832" y="40.19" fill="#6eadc1" stroke-width=".104" font-family="sans-serif" font-size="1.25" font-weight="400" style="line-height:1.25;text-align:center;white-space:pre" text-anchor="middle"><tspan style="text-align:center"><tspan font-family="Merriweather Sans" font-style="italic" style="-inkscape-font-specification:&quot;Merriweather Sans Italic&quot;;text-align:center">Blue Hill Bay</tspan></tspan></text><text xml:space="preserve" x="97.038" y="47.588" fill="#6eadc1" stroke-width=".104" font-family="sans-serif" font-size="1.25" font-weight="400" style="line-height:1.25;text-align:center;white-space:pre" text-anchor="middle"><tspan style="text-align:center"><tspan font-family="Merriweather Sans" font-style="italic" style="-inkscape-font-specification:&quot;Merriweather Sans Italic&quot;;text-align:center">Frenchman Bay</tspan></tspan></text><path fill="none" stroke="#0387ce" stroke-width=".67" d="M25.168 60.333h3.667m-20.998.333c0 .667.667 1.333 1.333 1.333L23.62 62c.666 0 1.332-.666 1.332-1.333m-.117-.334v11.665c0 .667-.666 1.333-1.333 1.333H9.17c-.667 0-1.333-.666-1.333-1.333V56.666"/><path fill="none" stroke="#fff" stroke-width=".35" d="m24.128 62.626.707.707.707-.707m-1.414 8.332.707.707.707-.707m-5.249 1.666-.707.708.707.706m-7.666-1.414-.707.708.707.706m-4.083-3.666-.707-.707-.707.707m1.414-5.999-.707-.707-.707.707m4.666-1.667.707-.707-.707-.707m7.666 1.414.707-.707-.707-.707"/><path fill="none" stroke="#0387ce" stroke-width=".6" d="M13.837 72.332v1m-5-6.666h-1m1-7.333h-1"/><text xml:space="preserve" x="-3015.962" y="70.77" font-family="Lato" font-size=".972" font-weight="700" letter-spacing="0" style="line-height:105.4%;-inkscape-font-specification:&quot;Arial Bold&quot;;text-align:center" text-anchor="middle" transform="translate(3029.816)" word-spacing="0"><tspan x="-3015.962" y="70.77" style="text-align:center">Bass Harbor</tspan><tspan x="-3015.962" y="71.823" style="text-align:center">Campground</tspan></text><text xml:space="preserve" x="-3020.709" y="66.437" font-family="Lato" font-size=".972" font-weight="700" letter-spacing="0" style="line-height:105.4%;-inkscape-font-specification:&quot;Arial Bold&quot;;text-align:center" text-anchor="middle" transform="translate(3029.816)" word-spacing="0"><tspan x="-3020.709" y="66.437" style="text-align:start" text-anchor="start">Bass Harbor</tspan><tspan x="-3020.709" y="67.491" style="text-align:start" text-anchor="start">Ferry Terminal</tspan></text><text xml:space="preserve" x="-3020.666" y="59.631" font-family="Lato" font-size=".972" font-weight="700" letter-spacing="0" style="line-height:105.4%;-inkscape-font-specification:&quot;Arial Bold&quot;;text-align:start" transform="translate(3029.816)" word-spacing="0"><tspan x="-3020.666" y="59.631" style="text-align:start">Tremont School</tspan></text><text xml:space="preserve" x="-3021.982" y="55.959" font-family="Lato" font-size=".972" font-weight="700" letter-spacing="0" style="line-height:105.4%;-inkscape-font-specification:&quot;Arial Bold&quot;;text-align:center" text-anchor="middle" transform="translate(3029.816)" word-spacing="0"><tspan x="-3021.982" y="55.959" style="text-align:center">Bernard</tspan></text><text xml:space="preserve" x="-3000.623" y="60.192" font-family="Lato" font-size=".972" font-weight="700" letter-spacing="0" style="line-height:105.4%;-inkscape-font-specification:&quot;Arial Bold&quot;;text-align:start" transform="translate(3029.816)" word-spacing="0"><tspan x="-3000.623" y="60.192" style="text-align:start">Clark</tspan><tspan x="-3000.623" y="61.245" style="text-align:start">Point</tspan></text><path fill="none" stroke="#0387ce" stroke-width=".6" d="M7.17 56.666h1.333M28.535 61v-1.334"/><path fill="none" stroke="#f3008e" stroke-width=".67" d="M75.163 45.668c0 .666-1.666 1.666-2.666 1.666H60.498"/><g fill="none"><path stroke="#276d4b" stroke-width=".67" d="M64.499 52.335h-5.667c-.667 0-1.333-.667-1.333-1.334V48.17c0-.834.666-1.5 1.333-1.5h14.332c.572.018 2-1 2.333-1.334"/><path stroke="#fff" stroke-width=".35" d="m70.773 46.058-.942.943.942.943m-7.333-1.886-.942.943.943.943"/></g><path fill="none" stroke="#131415" stroke-width=".67" d="M75.497 46H49.833c-.667 0-1.334.666-1.334 1.333v4.334"/><path fill="none" stroke="#131415" stroke-width=".6" d="M47.833 51.367h1.333"/><text xml:space="preserve" x="-4971.335" y="-2692.277" font-family="Lato" font-size=".972" font-weight="700" letter-spacing="0" style="line-height:105.4%;-inkscape-font-specification:&quot;Arial Bold&quot;;text-align:center" text-anchor="middle" transform="translate(5019.816 2745)" word-spacing="0"><tspan x="-4971.335" y="-2692.277" style="-inkscape-font-specification:&quot;Arial Bold&quot;;text-align:center">Eagle Lake</tspan></text><path fill="none" stroke="#ff4703" stroke-width=".67" d="M75.83 45.668V22.337c0-1-.874-1.977-2-2H48.5c-.667 0-1 0-1.334.333l-6 6"/><path fill="none" stroke="#ff4703" stroke-width=".6" d="M49.833 19.337v1m-4.333 2-.707-.708"/><text xml:space="preserve" x="-4963.31" y="-2726.724" font-family="Lato" font-size=".972" font-weight="700" letter-spacing="0" style="line-height:105.4%;-inkscape-font-specification:&quot;Arial Bold&quot;;text-align:start" transform="translate(5019.816 2745)" word-spacing="0"><tspan x="-4963.31" y="-2726.724" style="text-align:center" text-anchor="middle">Hulls Cove</tspan><tspan x="-4963.31" y="-2725.671" style="text-align:center" text-anchor="middle">Visitor Center</tspan></text><text xml:space="preserve" x="-4969.965" y="-2727.225" font-family="Lato" font-size=".972" font-weight="700" letter-spacing="0" style="line-height:105.4%;-inkscape-font-specification:&quot;Arial Bold&quot;;text-align:start" transform="translate(5019.816 2745)" word-spacing="0"><tspan x="-4969.965" y="-2727.225" style="text-align:center" text-anchor="middle">Bar Harbor</tspan><tspan x="-4969.965" y="-2726.172" style="text-align:center" text-anchor="middle">Campground</tspan></text><text xml:space="preserve" x="-4975.632" y="-2723.383" font-family="Lato" font-size=".972" font-weight="700" letter-spacing="0" style="line-height:105.4%;-inkscape-font-specification:&quot;Arial Bold&quot;;text-align:start" transform="translate(5019.816 2745)" word-spacing="0"><tspan x="-4975.632" y="-2723.383" style="text-align:end" text-anchor="end">Hadley Point</tspan></text><text xml:space="preserve" x="-4979.631" y="-2720.12" font-family="Lato" font-size=".972" font-weight="700" letter-spacing="0" style="line-height:105.4%;-inkscape-font-specification:&quot;Arial Bold&quot;;text-align:start" transform="translate(5019.816 2745)" word-spacing="0"><tspan x="-4979.631" y="-2720.12" style="text-align:end" text-anchor="end">Mt Desert</tspan><tspan x="-4979.631" y="-2719.067" style="text-align:end" text-anchor="end">Narrows</tspan><tspan x="-4979.631" y="-2718.014" style="text-align:end" text-anchor="end">Campground</tspan></text><path fill="none" stroke="#ff4703" stroke-width=".6" d="m41.638 27.14-.942-.942"/><path fill="none" stroke="#91745e" stroke-width=".67" d="M21.502 15.004v11.665c0 .667 0 1 .333 1.334l3.333 3.666c.334.333.334.667.334 1.333v9.666c0 .666.666 1.333 1.333 1.333h46.329c.666 0 2 1 2.333 1.333"/><path fill="none" stroke="#91745e" stroke-width=".6" d="M25.502 40.668h1m-1-3.333h1m-1-3.333h1m-5-12.332h1m-1-3.333h1"/><text xml:space="preserve" x="-4992.993" y="-2703.974" font-family="Lato" font-size=".972" font-weight="700" letter-spacing="0" style="line-height:105.4%;-inkscape-font-specification:&quot;Arial Bold&quot;;text-align:start" transform="translate(5019.816 2745)" word-spacing="0"><tspan x="-4992.993" y="-2703.974" style="text-align:start">Town Hill</tspan></text><text xml:space="preserve" x="-4992.993" y="-2707.317" font-family="Lato" font-size=".972" font-weight="700" letter-spacing="0" style="line-height:105.4%;-inkscape-font-specification:&quot;Arial Bold&quot;;text-align:start" transform="translate(5019.816 2745)" word-spacing="0"><tspan x="-4992.993" y="-2707.317" style="text-align:start">Terramore</tspan></text><text xml:space="preserve" x="-4997.02" y="-2723.559" font-family="Lato" font-size=".972" font-weight="700" letter-spacing="0" style="line-height:105.4%;-inkscape-font-specification:&quot;Arial Bold&quot;;text-align:start" transform="translate(5019.816 2745)" word-spacing="0"><tspan x="-4997.02" y="-2723.559" style="text-align:start">Narrows Too</tspan><tspan x="-4997.02" y="-2722.505" style="text-align:start">Campground</tspan></text><text xml:space="preserve" x="-4996.981" y="-2726.886" font-family="Lato" font-size=".972" font-weight="700" letter-spacing="0" style="line-height:105.4%;-inkscape-font-specification:&quot;Arial Bold&quot;;text-align:start" transform="translate(5019.816 2745)" word-spacing="0"><tspan x="-4996.981" y="-2726.886" style="text-align:start">Bar Harbor</tspan><tspan x="-4996.981" y="-2725.833" style="text-align:start">Airport</tspan></text><text xml:space="preserve" x="-4998.308" y="-2730.825" font-family="Lato" font-size=".972" font-weight="700" letter-spacing="0" style="line-height:105.4%;-inkscape-font-specification:&quot;Arial Bold&quot;;text-align:center" text-anchor="middle" transform="translate(5019.816 2745)" word-spacing="0"><tspan x="-4998.308" y="-2730.825" style="text-align:center">Acadia Gateway Center</tspan></text><text xml:space="preserve" x="-4993.011" y="-2711.251" font-family="Lato" font-size=".972" font-weight="700" letter-spacing="0" style="line-height:105.4%;-inkscape-font-specification:&quot;Arial Bold&quot;;text-align:start" transform="translate(5019.816 2745)" word-spacing="0"><tspan x="-4993.011" y="-2711.251" style="text-align:start"><tspan style="text-align:start">Bar Harbor KOA</tspan></tspan><tspan x="-4993.011" y="-2710.198" style="text-align:start">Campground</tspan></text><path fill="none" stroke="#91745e" stroke-width=".6" d="M20.836 14.97h1.333"/><path fill="none" stroke="#d133ac" stroke-width=".67" d="M75.497 44.667H37.5c-.774 0-1.683.323-2 .97-.34-.654-.911-.97-1.666-.97h-7c-.804 0-1.332.666-1.332 1.333v23.664"/><text xml:space="preserve" x="-4972.649" y="-2701.841" font-family="Lato" font-size=".972" font-weight="700" letter-spacing="0" style="line-height:105.4%;-inkscape-font-specification:&quot;Arial Bold&quot;;text-align:center" text-anchor="middle" transform="translate(5019.816 2745)" word-spacing="0"><tspan x="-4972.649" y="-2701.841" style="text-align:center">MDI High School</tspan></text><path fill="none" stroke="#d133ac" stroke-width=".6" d="M24.502 48h1m-1 8h1m-1-4h1"/><text xml:space="preserve" x="-4995.614" y="-2696.701" font-family="Lato" font-size=".972" font-weight="700" letter-spacing="0" style="line-height:105.4%;-inkscape-font-specification:&quot;Arial Bold&quot;;text-align:end" text-anchor="end" transform="translate(5019.816 2745)" word-spacing="0"><tspan x="-4995.614" y="-2696.701" style="text-align:end">Somesville</tspan></text><text xml:space="preserve" x="-4995.614" y="-2692.706" font-family="Lato" font-size=".972" font-weight="700" letter-spacing="0" style="line-height:105.4%;-inkscape-font-specification:&quot;Arial Bold&quot;;text-align:end" text-anchor="end" transform="translate(5019.816 2745)" word-spacing="0"><tspan x="-4995.614" y="-2692.706" style="text-align:end">Echo Lake</tspan></text><text xml:space="preserve" x="-4995.595" y="-2689.224" font-family="Lato" font-size=".972" font-weight="700" letter-spacing="0" style="line-height:105.4%;-inkscape-font-specification:&quot;Arial Bold&quot;;text-align:end" text-anchor="end" transform="translate(5019.816 2745)" word-spacing="0"><tspan x="-4995.595" y="-2689.224" style="text-align:end">Smuggler&apos;s Den</tspan><tspan x="-4995.595" y="-2688.17" style="text-align:end">Campground</tspan></text><text xml:space="preserve" x="-4995.991" y="-2684.808" font-family="Lato" font-size=".972" font-weight="700" letter-spacing="0" style="line-height:105.4%;-inkscape-font-specification:&quot;Arial Bold&quot;;text-align:end" text-anchor="end" transform="translate(5019.816 2745)" word-spacing="0"><tspan x="-4995.991" y="-2684.808" style="text-align:end">Southwest</tspan><tspan x="-4995.991" y="-2683.755" style="text-align:end">Harbor</tspan></text><text xml:space="preserve" x="-4995.973" y="-2679.707" font-family="Lato" font-size=".972" font-weight="700" letter-spacing="0" style="line-height:105.4%;-inkscape-font-specification:&quot;Arial Bold&quot;;text-align:end" text-anchor="end" transform="translate(5019.816 2745)" word-spacing="0"><tspan x="-4995.973" y="-2679.707" style="text-align:end">Manset Dock</tspan></text><text xml:space="preserve" x="-4995.928" y="-2675.558" font-family="Lato" font-size=".972" font-weight="700" letter-spacing="0" style="line-height:105.4%;-inkscape-font-specification:&quot;Arial Bold&quot;;text-align:center" text-anchor="middle" transform="translate(5019.816 2745)" word-spacing="0"><tspan x="-4995.928" y="-2675.558" style="text-align:end" text-anchor="end">Seawall</tspan><tspan x="-4995.928" y="-2674.505" style="text-align:end" text-anchor="end">Campground</tspan></text><path fill="none" stroke="#0aaeed" stroke-width=".67" d="M75.497 45.333h-29.33c-.667 0-1.334.667-1.334 1.333v19.332c0 .666.667 1.333 1.333 1.333h8.666c.667 0 1.333-.667 1.333-1.333V64.33"/><path fill="none" stroke="#0aaeed" stroke-width=".6" d="M44.833 56.666h1m-1 5.666h1"/><text xml:space="preserve" x="-4973.688" y="-2688.48" font-family="Lato" font-size=".972" font-weight="700" letter-spacing="0" style="line-height:105.4%;-inkscape-font-specification:&quot;Arial Bold&quot;;text-align:start" transform="translate(5019.816 2745)" word-spacing="0"><tspan x="-4973.688" y="-2688.48" style="text-align:start">Brown Mountain</tspan><tspan x="-4973.688" y="-2687.427" style="text-align:start">Gatehouse</tspan></text><text xml:space="preserve" x="-4973.709" y="-2682.813" font-family="Lato" font-size=".972" font-weight="700" letter-spacing="0" style="line-height:105.4%;-inkscape-font-specification:&quot;Arial Bold&quot;;text-align:start" transform="translate(5019.816 2745)" word-spacing="0"><tspan x="-4973.709" y="-2682.813" style="text-align:start">Northeast</tspan><tspan x="-4973.709" y="-2681.76" style="text-align:start">Harbor</tspan></text><path fill="none" stroke="#0aaeed" stroke-width=".67" d="M35.834 46c.333-.332 1-.666 1.666-.666h6c.666 0 1.333.667 1.333 1.333v.334m-1.666-1.667h3"/><path fill="none" stroke="#c5d3da" stroke-dasharray="1.1 1.1" stroke-dashoffset=".22" stroke-linecap="round" stroke-linejoin="round" stroke-width=".55" d="m76.497 44.668 4-4c2.447-2.448 4.999-5.833 4.999-7.666v-3.666c0-5 2.666-7.333 7.332-7.333"/><path fill="none" stroke="#753bdc" stroke-width=".67" d="M92.828 17.004v14.998c0 .667.667 1.333 1.333 1.333h7.333c.666 0 1.333-.666 1.333-1.333V15.004"/><path fill="none" stroke="#fff" stroke-width=".35" d="m92.121 26.63.707.706.707-.707m-1.414 3.666.707.707.707-.707"/><path fill="none" stroke="#753bdc" stroke-width=".67" d="M92.828 23.67c0 .666.667 1.333 1.334 1.333h7.332c.666 0 1.333-.667 1.333-1.333"/><path fill="none" stroke="#753bdc" stroke-width=".6" d="M92.828 29.002h1m-1-6.999h1m7.999-3h1m-4.999 14.332v1"/><text xml:space="preserve" x="-2931.988" y="-1519.609" font-family="Lato" font-size=".972" font-weight="700" letter-spacing="0" style="line-height:105.4%;-inkscape-font-specification:&quot;Arial Bold&quot;;text-align:center" text-anchor="middle" transform="translate(3029.816 1555)" word-spacing="0"><tspan x="-2931.988" y="-1519.609" style="text-align:center">Schoodic Point</tspan></text><text xml:space="preserve" x="-2935.684" y="-1526.221" font-family="Lato" font-size=".972" font-weight="700" letter-spacing="0" style="line-height:105.4%;-inkscape-font-specification:&quot;Arial Bold&quot;;text-align:start" transform="translate(3029.816 1555)" word-spacing="0"><tspan x="-2935.684" y="-1526.221" style="text-align:start">Schoodic Woods</tspan><tspan x="-2935.684" y="-1525.168" style="text-align:start">Campground</tspan></text><text xml:space="preserve" x="-2935.716" y="-1532.786" font-family="Lato" font-size=".972" font-weight="700" letter-spacing="0" style="line-height:105.4%;-inkscape-font-specification:&quot;Arial Bold&quot;;text-align:start" transform="translate(3029.816 1555)" word-spacing="0"><tspan x="-2935.716" y="-1532.786" style="text-align:start">Ferry Terminal</tspan></text><text xml:space="preserve" x="-2936.983" y="-1538.67" font-family="Lato" font-size=".972" font-weight="700" letter-spacing="0" style="line-height:105.4%;-inkscape-font-specification:&quot;Arial Bold&quot;;text-align:start" transform="translate(3029.816 1555)" word-spacing="0"><tspan x="-2936.983" y="-1538.67" style="text-align:center" text-anchor="middle">Winter Harbor</tspan></text><text xml:space="preserve" x="-2928.332" y="-1535.703" font-family="Lato" font-size=".972" font-weight="700" letter-spacing="0" style="line-height:105.4%;-inkscape-font-specification:&quot;Arial Bold&quot;;text-align:end" text-anchor="end" transform="translate(3029.816 1555)" word-spacing="0"><tspan x="-2928.332" y="-1535.703" style="text-align:end">Birch Harbor</tspan></text><text xml:space="preserve" x="-2927.019" y="-1540.825" font-family="Lato" font-size=".972" font-weight="700" letter-spacing="0" style="line-height:105.4%;-inkscape-font-specification:&quot;Arial Bold&quot;;text-align:center" text-anchor="middle" transform="translate(3029.816 1555)" word-spacing="0"><tspan x="-2927.019" y="-1540.825" style="text-align:center">Prospect Harbor</tspan></text><path fill="none" stroke="#753bdc" stroke-width=".6" d="M92.162 16.97h1.333m8.665-2 1.333.001"/><path fill="none" stroke="#fff" stroke-width=".35" d="m98.202 24.296-.707.707.707.707m5.332 3.666-.707-.707-.707.707m-6.999 4.667.707-.708-.707-.707m4.666 1.415.707-.708-.707-.707"/><path fill="none" stroke="#f3b209" stroke-width=".67" d="M56.832 20.668V51c0 1 1 2 2 2h5.666c.69-.034 1.333.667 1.333 1.333V56h8c1 0 1.999 1 1.999 2v7.999c0 .66-.158 1.158-.477 1.476l-6.187 6.19c-.335.335-.669.333-1.335.336h-9.666c-.666 0-1.333-.67-1.333-1.336V45.668"/><path fill="none" stroke="#fff" stroke-width=".35" d="M71.164 70.332v1.333h1.333m-6.057 1.39-.942.943.942.943m-6.332-1.886-.943.943.943.943m-2.333-7.333-.943-.942-.943.942m1.886-4.999-.943-.943-.943.943m1.886-5.333-.943-.943-.943.943"/><text xml:space="preserve" x="-4954.952" y="-2688.807" font-family="Lato" font-size=".972" font-weight="700" letter-spacing="0" style="line-height:105.4%;-inkscape-font-specification:&quot;Arial Bold&quot;;text-align:end" text-anchor="end" transform="translate(5019.816 2745)" word-spacing="0"><tspan x="-4954.952" y="-2688.807" style="text-align:end">Sieur de</tspan><tspan x="-4954.952" y="-2687.754" style="text-align:end">Monts</tspan></text><text xml:space="preserve" x="-4943.016" y="-2685.37" font-family="Lato" font-size=".972" font-weight="700" letter-spacing="0" style="line-height:105.4%;-inkscape-font-specification:&quot;Arial Bold&quot;;text-align:start" transform="translate(5019.816 2745)" word-spacing="0"><tspan x="-4943.016" y="-2685.37" style="text-align:start">Sand Beach</tspan></text><text xml:space="preserve" x="-4942.38" y="-2699.373" font-family="Lato" font-size=".972" font-weight="700" letter-spacing="0" style="line-height:105.4%;-inkscape-font-specification:&quot;Arial Bold&quot;;text-align:start" transform="translate(5019.816 2745)" word-spacing="0"><tspan x="-4942.38" y="-2699.373" style="text-align:start">Village Green</tspan></text><text xml:space="preserve" x="-4964.304" y="-2695.586" font-family="Lato" font-size=".972" font-weight="700" letter-spacing="0" style="line-height:105.4%;-inkscape-font-specification:&quot;Arial Bold&quot;;text-align:end" text-anchor="end" transform="translate(5019.816 2745)" word-spacing="0"><tspan x="-4964.304" y="-2695.586" style="-inkscape-font-specification:&quot;Lato Bold&quot;;text-align:end">Cadillac</tspan><tspan x="-4964.304" y="-2694.533" style="-inkscape-font-specification:&quot;Lato Bold&quot;;text-align:end">North Ridge</tspan></text><path fill="none" stroke="#f3b209" stroke-width=".6" d="M56.832 68.664h1"/><text xml:space="preserve" x="-4961.654" y="-2676.481" font-family="Lato" font-size=".972" font-weight="700" letter-spacing="0" style="line-height:105.4%;-inkscape-font-specification:&quot;Arial Bold&quot;;text-align:start" transform="translate(5019.816 2745)" word-spacing="0"><tspan x="-4961.654" y="-2676.481" style="text-align:start">Wildwood</tspan><tspan x="-4961.654" y="-2675.428" style="text-align:start">Stables</tspan></text><g fill="none"><path stroke="#f3008e" stroke-width=".67" d="M66.498 54.333V53c0-.666.666-1.333 1.333-1.333h6c.666 0 1.332-.667 1.332-1.333v-4.666"/><path stroke="#fff" stroke-width=".35" d="m69.554 52.61.943-.943-.942-.943"/></g><path fill="none" stroke="#276d4b" stroke-width=".67" d="M75.83 45.334v5c0 1-1 2-2 2-.666 0-1 .333-1.333.666l-5 5c-.333.333-.333.667-.333 1.334v2.999c0 .666.025 1.048.334 1.357l4.642 4.643c.471.47.942.47 1.414 0l1.28-1.281c.334-.334.33-.72.33-1.386V58c0-.667-.67-1.336-1.337-1.336H70.83c-.666 0-1 0-1.332-.332m1.332.334c-.666 0-1 0-1.332-.332"/><path fill="none" stroke="#fff" stroke-width=".35" d="M71.497 66.332h-1.333v1.333m-2.057-5.39-.943-.942-.943.942M76.44 49.61l-.943-.943-.943.943m-6.39 9.056v-1.333h-1.333m4.491-2.491v-.667H69.99m1.898 3.101.942-.943-.942-.943m2.666 8 .943.942.942-.942"/><path fill="none" stroke="#276d4b" stroke-width=".6" d="M75.163 62.665h1.667m-1.667 3.001h1.667m-1.18 2.928-1.18-1.179"/><text xml:space="preserve" x="77.131" y="66.023" font-family="Lato" font-size=".972" font-weight="700" letter-spacing="0" style="line-height:105.4%;-inkscape-font-specification:&quot;Arial Bold&quot;;text-align:start" word-spacing="0"><tspan x="77.131" y="66.023" style="text-align:start">Otter Cliffs</tspan></text><text xml:space="preserve" x="75.837" y="69.54" font-family="Lato" font-size=".972" font-weight="700" letter-spacing="0" style="line-height:105.4%;-inkscape-font-specification:&quot;Arial Bold&quot;;text-align:start" word-spacing="0"><tspan x="75.837" y="69.54" style="text-align:start">Fabbri</tspan></text><path fill="none" stroke="#f3008e" stroke-width=".67" d="M60.498 47.334h-.666c-.667 0-1.334.667-1.334 1.333v1.667c0 .666.667 1.333 1.334 1.333h4.332c1.334 0 2.334.333 2.334 2.333v14.666"/><text xml:space="preserve" x="-2963.3" y="70.054" font-family="Lato" font-size=".972" font-weight="700" letter-spacing="0" style="line-height:105.4%;-inkscape-font-specification:&quot;Arial Bold&quot;;text-align:center" text-anchor="middle" transform="translate(3029.816)" word-spacing="0"><tspan x="-2963.3" y="70.054" style="text-align:center">Blackwoods</tspan><tspan x="-2963.3" y="71.107" style="text-align:center">Campground</tspan></text><path fill="none" stroke="#f3008e" stroke-width=".6" d="M65.831 68.698h1.333"/><path fill="none" stroke="#276d4b" stroke-width=".67" d="M70.83 56.666c-.666 0-1 0-1.332-.332l-3.333-3.333c-.333-.333-1-.666-1.666-.666h-5.667"/><path fill="#fff" fill-opacity=".702" d="m-4928.294-2693.512-.596.596.21.211.668-.668a.638.638 0 0 1-.289-.132z" color="#000" style="-inkscape-stroke:none" transform="translate(4998.11 2749.666)"/><path fill="none" stroke="#fff" stroke-opacity=".702" stroke-width=".3" d="m69.224 55.587-.472.471"/><text xml:space="preserve" x="-4942.67" y="-2682.041" font-family="Lato" font-size=".972" font-weight="700" letter-spacing="0" style="line-height:105.4%;-inkscape-font-specification:&quot;Arial Bold&quot;;text-align:start" transform="translate(5019.816 2745)" word-spacing="0"><tspan x="-4942.67" y="-2682.041" style="text-align:start">Thunder Hole</tspan></text><path fill="none" stroke="#fff" stroke-width=".35" d="m61.653 53.512 1.178-1.178-1.178-1.179m5.511 3.512h.667V54"/><path fill="none" stroke="#9180e7" stroke-width=".67" d="M56.165 64V21.002"/><path fill="none" stroke="#9180e7" stroke-width=".6" d="M56.165 60.333h1.667"/><text xml:space="preserve" x="-4961.712" y="-2684.813" font-family="Lato" font-size=".972" font-weight="700" letter-spacing="0" style="line-height:105.4%;-inkscape-font-specification:&quot;Arial Bold&quot;;text-align:start" transform="translate(5019.816 2745)" word-spacing="0"><tspan x="-4961.712" y="-2684.813" style="text-align:start">Bubble</tspan><tspan x="-4961.712" y="-2683.76" style="text-align:start">Pond</tspan></text><text xml:space="preserve" x="-4961.998" y="-2681.147" font-family="Lato" font-size=".972" font-weight="700" letter-spacing="0" style="line-height:105.4%;-inkscape-font-specification:&quot;Arial Bold&quot;;text-align:start" transform="translate(5019.816 2745)" word-spacing="0"><tspan x="-4961.998" y="-2681.147" style="text-align:start">Jordan</tspan><tspan x="-4961.998" y="-2680.093" style="text-align:start">Pond</tspan></text><path fill="none" stroke="#539fb2" stroke-width=".67" d="M75.163 45.001V22.337"/><text xml:space="preserve" x="-4944.598" y="-2713.308" font-family="Lato" font-size=".972" font-weight="700" letter-spacing="0" style="line-height:105.4%;-inkscape-font-specification:&quot;Arial Bold&quot;;text-align:center" text-anchor="middle" transform="translate(5018.482 2744.334)" word-spacing="0"><tspan x="-4944.598" y="-2713.308" style="text-align:end" text-anchor="end">Acadia Inn</tspan></text><text xml:space="preserve" x="-4944.637" y="-2716.168" font-family="Lato" font-size=".972" font-weight="700" letter-spacing="0" style="line-height:105.4%;-inkscape-font-specification:&quot;Arial Bold&quot;;text-align:center" text-anchor="middle" transform="translate(5018.482 2744.334)" word-spacing="0"><tspan x="-4944.637" y="-2716.168" style="text-align:end" text-anchor="end">Bar Harbor</tspan><tspan x="-4944.637" y="-2715.115" style="text-align:end" text-anchor="end">Hotel</tspan></text><text xml:space="preserve" x="-4941.325" y="-2712.839" font-family="Lato" font-size=".972" font-weight="700" letter-spacing="0" style="line-height:105.4%;-inkscape-font-specification:&quot;Arial Bold&quot;;text-align:start" transform="translate(5018.482 2744.334)" word-spacing="0"><tspan x="-4941.325" y="-2712.839" style="text-align:start">College of</tspan><tspan x="-4941.325" y="-2711.786" style="text-align:start">the Atlantic</tspan></text><text xml:space="preserve" x="-4941.313" y="-2717.177" font-family="Lato" font-size=".972" font-weight="700" letter-spacing="0" style="line-height:105.4%;-inkscape-font-specification:&quot;Arial Bold&quot;;text-align:start" transform="translate(5018.482 2744.334)" word-spacing="0"><tspan x="-4941.313" y="-2717.177" style="text-align:start">Atlantic</tspan><tspan x="-4941.313" y="-2716.124" style="text-align:start">Oceanside</tspan></text><text xml:space="preserve" x="-4941.373" y="-2721.927" font-family="Lato" font-size=".972" font-weight="700" letter-spacing="0" style="line-height:105.4%;-inkscape-font-specification:&quot;Arial Bold&quot;;text-align:start" transform="translate(5018.482 2744.334)" word-spacing="0"><tspan x="-4941.373" y="-2721.927" style="text-align:start">Bar Harbor</tspan><tspan x="-4941.373" y="-2720.873" style="text-align:start">Regency</tspan></text><text xml:space="preserve" x="-4941.331" y="-2719.51" font-family="Lato" font-size=".972" font-weight="700" letter-spacing="0" style="line-height:105.4%;-inkscape-font-specification:&quot;Arial Bold&quot;;text-align:start" transform="translate(5018.482 2744.334)" word-spacing="0"><tspan x="-4941.331" y="-2719.51" style="text-align:start">Ferry</tspan><tspan x="-4941.331" y="-2718.457" style="text-align:start">Terminal</tspan></text><path fill="#fff" d="m-4943.32-2706.495-.334.333v.494l.334-.333.333.333v-.494z" color="#000" style="-inkscape-stroke:none" transform="translate(5018.482 2744.334)"/><path fill="none" stroke="#539fb2" stroke-width=".6" d="M74.164 28.336h1m-.001-5.7h1.667m-1.667 2.367h1.667m-1.667 2.333h1.667m-1.667 4.333h1.667m-2.666-1h1m-4 9.664h1m-1-4.666h1m-1 2.333h1"/><path fill="none" stroke="#539fb2" stroke-dashoffset="9.6" stroke-linejoin="bevel" stroke-width=".67" d="M75.164 43.333c0-.666-.667-1.333-1.333-1.333h-.334c-.703 0-1.333-.666-1.333-1.334v-5.332c0-.665.667-1.332 1.333-1.332h.334c.666 0 1.332-.666 1.332-1.333m0 7.665v5" paint-order="markers fill stroke"/><path fill="none" stroke="#fff" stroke-width=".35" d="m72.888 42.944.942-.943-.942-.942m-1.667-4.935.943.943.942-.943m1.334-3.064-.943.942.943.943"/><text xml:space="preserve" x="-2959.637" y="37.823" font-family="Lato" font-size=".972" font-weight="700" letter-spacing="0" style="line-height:105.4%;-inkscape-font-specification:&quot;Arial Bold&quot;;text-align:end" text-anchor="end" transform="translate(3030.482)" word-spacing="0"><tspan x="-2959.637" y="37.823" style="text-align:end">Hampton Inn</tspan><tspan x="-2959.637" y="38.876" style="text-align:end">Bar Harbor</tspan></text><text xml:space="preserve" x="-2959.593" y="35.407" font-family="Lato" font-size=".972" font-weight="700" letter-spacing="0" style="line-height:105.4%;-inkscape-font-specification:&quot;Arial Bold&quot;;text-align:center" text-anchor="middle" transform="translate(3030.482)" word-spacing="0"><tspan x="-2959.593" y="35.407" style="text-align:end" text-anchor="end">Atlantic Eyrie</tspan><tspan x="-2959.593" y="36.46" style="text-align:end" text-anchor="end">Lodge</tspan></text><text xml:space="preserve" x="-2959.57" y="40.691" font-family="Lato" font-size=".972" font-weight="700" letter-spacing="0" style="line-height:105.4%;-inkscape-font-specification:&quot;Arial Bold&quot;;text-align:end" text-anchor="end" transform="translate(3030.482)" word-spacing="0"><tspan x="-2959.57" y="40.691" style="text-align:end">Wonder View Inn</tspan></text><g transform="translate(5019.816 2745)"><circle cx="4972.65" cy="2700.332" r=".85" fill="#fff" stroke="#000" stroke-width=".3" transform="scale(-1)"/><circle cx="4984.315" cy="2699.332" r=".85" fill="#fff" stroke="#000" stroke-width=".3" transform="scale(-1)"/><circle cx="4994.648" cy="2684.667" r=".85" fill="#fff" stroke="#000" stroke-width=".3" transform="scale(-1)"/><circle cx="4994.648" cy="2680.001" r=".85" fill="#fff" stroke="#000" stroke-width=".3" transform="scale(-1)"/><circle cx="4994.648" cy="2675.335" r=".85" fill="#fff" stroke="#000" stroke-width=".3" transform="scale(-1)"/><circle cx="4953.652" cy="2688.667" r=".85" fill="#fff" stroke="#000" stroke-width=".3" transform="scale(-1)"/><circle cx="4963.315" cy="2681.002" r=".85" fill="#fff" stroke="#000" stroke-width=".3" transform="scale(-1)"/><circle cx="4944.317" cy="2685.668" r=".85" fill="#fff" stroke="#000" stroke-width=".3" transform="scale(-1)"/><circle cx="4962.984" cy="2695.333" r=".85" fill="#fff" stroke="#000" stroke-width=".3" transform="scale(-1)"/><circle cx="4963.318" cy="2724.33" r=".85" fill="#fff" stroke="#000" stroke-width=".3" transform="scale(-1)"/><circle cx="4944.317" cy="2699.666" r="1.42" fill="#fff" stroke="#000" stroke-width=".49" transform="scale(-1)"/><text xml:space="preserve" x="-4984.297" y="-2697.296" font-family="Lato" font-size=".972" font-weight="700" letter-spacing="0" style="line-height:105.4%;-inkscape-font-specification:&quot;Arial Bold&quot;;text-align:center" text-anchor="middle" word-spacing="0"><tspan x="-4984.297" y="-2697.296" style="text-align:center">Mt. Desert</tspan><tspan x="-4984.297" y="-2696.243" style="text-align:center">Campground</tspan></text></g><rect width="88.162" height="8.856" fill="#323232" paint-order="markers fill stroke" ry="0"/><text xml:space="preserve" x="89.706" y="6.765" stroke-width=".104" font-family="sans-serif" font-size="6.25" font-weight="400" style="line-height:1.25;white-space:pre"><tspan><tspan font-family="Rubik" font-weight="600" style="-inkscape-font-specification:&quot;Rubik Semi-Bold&quot;">2023</tspan></tspan></text><path fill="none" stroke="#323232" stroke-width=".1" d="M88.162 8.806H110"/><text xml:space="preserve" x="86.218" y="6.765" stroke-width=".104" font-family="sans-serif" font-size="6.25" font-weight="400" style="line-height:1.25;text-align:end;white-space:pre"><tspan fill="#fff" font-family="Rubik" style="-inkscape-font-specification:Rubik;text-align:end" text-anchor="end">Island Explorer route map</tspan></text><text xml:space="preserve" x="13.112" y="82.45" stroke-width=".104" font-family="sans-serif" font-size="1.389" font-weight="400" style="line-height:1.25;white-space:pre"><tspan><tspan font-family="Lato" font-style="italic" style="-inkscape-font-specification:&quot;Lato Italic&quot;">Copyright Richard L. McNeary II</tspan></tspan></text><text xml:space="preserve" x="64.725" y="82.45" stroke-width=".104" font-family="sans-serif" font-size="1.389" font-weight="400" style="line-height:1.25;white-space:pre"><tspan><tspan font-family="Lato" font-weight="700" style="-inkscape-font-specification:&quot;Lato Bold&quot;;text-align:end">https://islandexplorermap.com</tspan></tspan></text><g stroke-width="19.834"><path fill="#aab2ab" d="m2.743 79.258 9.489.017c.133 0 .251-.02.251.264l-.012 3.125H2.504v-3.136c0-.14.014-.27.24-.27z"/><path fill="#fff" d="M5.348 80.857a1.141 1.141 0 0 1-2.283 0 1.141 1.141 0 0 1 2.283-.002v.002z"/><path d="M5.134 79.927c.253.253.38.563.38.93 0 .366-.124.673-.373.92a1.29 1.29 0 0 1-.936.389c-.356 0-.662-.129-.92-.386a1.26 1.26 0 0 1-.386-.923c0-.358.129-.668.386-.93.251-.253.558-.38.92-.38.367 0 .676.127.93.38zm-1.678.17c-.214.216-.321.47-.321.76 0 .29.106.541.317.753.212.212.464.317.757.317.292 0 .547-.106.763-.32a1 1 0 0 0 .308-.75c0-.3-.105-.553-.313-.761a1.032 1.032 0 0 0-.758-.313c-.297 0-.548.105-.753.314zm.563.632c-.033-.071-.082-.107-.147-.107-.116 0-.173.078-.173.233 0 .156.057.233.173.233.076 0 .13-.038.163-.113l.16.085a.37.37 0 0 1-.343.203.378.378 0 0 1-.283-.108.407.407 0 0 1-.106-.298c0-.125.037-.224.11-.297a.37.37 0 0 1 .272-.11c.162 0 .277.064.347.19zm.752 0c-.032-.071-.08-.107-.144-.107-.117 0-.176.078-.176.233 0 .156.059.233.176.233.077 0 .13-.038.16-.113l.164.085a.37.37 0 0 1-.342.203.377.377 0 0 1-.283-.108.408.408 0 0 1-.106-.298c0-.125.036-.224.108-.297a.367.367 0 0 1 .274-.11c.161 0 .276.064.346.19z"/><path d="M12.315 79.218H2.646a.188.188 0 0 0-.188.188v3.285c0 .024.02.043.043.043h9.96a.043.043 0 0 0 .042-.043v-3.285a.188.188 0 0 0-.188-.188zm-9.669.085h9.669c.057 0 .103.046.103.103v2.28h-6.91a1.487 1.487 0 0 1-2.603 0h-.362v-2.28c0-.057.046-.103.103-.103z"/><path fill="#fff" d="M9.68 82.376a.088.088 0 0 0 .026.032.116.116 0 0 0 .039.018.185.185 0 0 0 .081.003.122.122 0 0 0 .035-.01.075.075 0 0 0 .027-.022.056.056 0 0 0 .011-.035.049.049 0 0 0-.014-.036.113.113 0 0 0-.038-.023.38.38 0 0 0-.053-.017 1.417 1.417 0 0 1-.12-.034.208.208 0 0 1-.053-.03.137.137 0 0 1-.037-.044.136.136 0 0 1-.014-.065c0-.028.006-.053.018-.074a.166.166 0 0 1 .048-.052.207.207 0 0 1 .066-.031.284.284 0 0 1 .075-.01.35.35 0 0 1 .083.01c.027.006.05.016.071.03a.16.16 0 0 1 .05.056c.011.023.017.05.017.082H9.88a.1.1 0 0 0-.01-.04.07.07 0 0 0-.024-.027.1.1 0 0 0-.033-.013.206.206 0 0 0-.071 0 .079.079 0 0 0-.027.01.067.067 0 0 0-.02.02.053.053 0 0 0-.007.03c0 .01.002.019.006.026a.056.056 0 0 0 .024.018.31.31 0 0 0 .05.017 7.651 7.651 0 0 0 .128.033.207.207 0 0 1 .055.026.167.167 0 0 1 .047.048.17.17 0 0 1 .005.147.153.153 0 0 1-.044.057.21.21 0 0 1-.072.037.35.35 0 0 1-.189.002.224.224 0 0 1-.076-.036.176.176 0 0 1-.053-.061.184.184 0 0 1-.018-.089h.118c0 .019.003.034.01.047zm.686-.416.207.553h-.126l-.042-.123h-.208l-.043.123h-.123l.21-.554zm.007.339-.07-.203h-.002l-.072.203zM7.48 81.96c.027 0 .05.001.073.006.021.005.04.012.056.023.015.01.027.025.036.042a.16.16 0 0 1 .013.065.12.12 0 0 1-.02.07.138.138 0 0 1-.056.046c.034.01.06.027.077.052a.153.153 0 0 1 .025.089.142.142 0 0 1-.06.123.194.194 0 0 1-.063.028.283.283 0 0 1-.073.01H7.22v-.555h.261zm-.015.223c.021 0 .04-.005.053-.015.014-.01.021-.027.021-.05a.064.064 0 0 0-.007-.032.052.052 0 0 0-.018-.02.08.08 0 0 0-.027-.01.177.177 0 0 0-.032-.002h-.114v.13zm.007.236a.161.161 0 0 0 .034-.004.085.085 0 0 0 .029-.012.06.06 0 0 0 .02-.022.076.076 0 0 0 .007-.035c0-.029-.008-.05-.024-.061a.103.103 0 0 0-.064-.019h-.133v.153zm.234-.459h.137l.13.218.128-.219h.136l-.206.342v.212H7.91v-.215zm3.324-1.488a.886.886 0 0 1-1.772.001v-.001a.886.886 0 0 1 1.772-.001z"/><path d="M10.138 79.501a.925.925 0 0 0-.683.282.95.95 0 0 0-.287.689c0 .265.096.493.287.684a.933.933 0 0 0 .683.286.959.959 0 0 0 .695-.288.921.921 0 0 0 .277-.682.937.937 0 0 0-.282-.69.94.94 0 0 0-.69-.28zm.002.175a.76.76 0 0 1 .561.233.762.762 0 0 1 .234.563.74.74 0 0 1-.229.556.779.779 0 0 1-.566.237.767.767 0 0 1-.561-.235.762.762 0 0 1-.236-.558c0-.215.08-.403.238-.563a.752.752 0 0 1 .56-.233z"/><path d="M9.707 80.335c.04-.244.211-.375.426-.375.31 0 .5.225.5.525 0 .292-.202.52-.504.52a.416.416 0 0 1-.429-.38h.245c.007.13.092.177.213.177.138 0 .227-.129.227-.324 0-.206-.077-.315-.223-.315-.106 0-.198.039-.217.172h.07l-.192.192-.192-.192z"/><g transform="matrix(.08319 0 0 .08318 -12.416 72.987)"><circle cx="242.562" cy="90.225" r="10.806" fill="#fff"/><path d="M245.69 87.098a.754.754 0 0 0-.754-.754h-4.772a.754.754 0 0 0-.754.754v4.773h1.33v5.652h3.618V91.87h1.332v-4.773z"/><circle cx="242.55" cy="84.083" r="1.632"/><path fill-rule="evenodd" d="M242.535 78.318c-3.232 0-5.969 1.128-8.208 3.384-2.298 2.333-3.446 5.095-3.446 8.284 0 3.19 1.148 5.932 3.446 8.227s5.034 3.442 8.208 3.442c3.213 0 5.998-1.156 8.353-3.471 2.22-2.197 3.33-4.93 3.33-8.198 0-3.267-1.129-6.028-3.387-8.284-2.26-2.256-5.025-3.384-8.296-3.384zm.029 2.1c2.648 0 4.897.934 6.747 2.8 1.87 1.848 2.805 4.104 2.805 6.768 0 2.684-.915 4.911-2.746 6.681-1.928 1.906-4.197 2.858-6.806 2.858-2.61 0-4.858-.942-6.747-2.83-1.89-1.885-2.833-4.122-2.833-6.709 0-2.586.954-4.842 2.862-6.767 1.83-1.867 4.07-2.801 6.718-2.801z" clip-rule="evenodd"/></g></g><path fill="#fff" d="M89.606 57.666h16.332v24.997H89.606z" paint-order="markers fill stroke" style="mix-blend-mode:normal"/><circle cx="91.439" cy="81.164" r=".833" fill="#131415" paint-order="markers fill stroke"/><text xml:space="preserve" x="92.475" y="81.7" stroke-width=".104" font-family="sans-serif" font-size="1.528" font-weight="400" style="line-height:1.25;white-space:pre"><tspan><tspan font-family="Lato" style="-inkscape-font-specification:Lato">Bicycle Express</tspan></tspan></text><text xml:space="preserve" x="85.457" y="77.372" stroke-width=".104" font-family="sans-serif" font-size="1.528" font-weight="400" style="line-height:1.25;white-space:pre" transform="translate(7.11 2.365)"><tspan><tspan font-family="Lato" style="-inkscape-font-specification:Lato">Tremont</tspan></tspan></text><g transform="translate(7.15 2.414)"><circle cx="84.288" cy="76.782" r=".833" fill="#0387ce" paint-order="markers fill stroke"/><text xml:space="preserve" x="15.953" font-family="sans-serif" font-size="13.333" font-weight="400" letter-spacing="-.5" style="line-height:1.25;text-align:center;white-space:pre;shape-inside:url(#a)" transform="translate(55.845 -8.999) scale(.10417)"><tspan x="266.722" y="828.158"><tspan fill="#fff" font-family="Rubik" style="-inkscape-font-specification:Rubik">11</tspan></tspan></text></g><text xml:space="preserve" x="85.032" y="75.721" stroke-width=".104" font-family="sans-serif" font-size="1.528" font-weight="400" style="line-height:1.25;white-space:pre" transform="translate(7.443 2.031)"><tspan><tspan font-family="Lato" style="-inkscape-font-specification:Lato">Blackwoods</tspan></tspan></text><g transform="translate(7.443 2.031)"><circle cx="83.996" cy="75.165" r=".833" fill="#f3008e" paint-order="markers fill stroke"/><text xml:space="preserve" x="33.869" font-family="sans-serif" font-size="13.333" font-weight="400" letter-spacing="-.5" style="line-height:1.25;text-align:center;white-space:pre;shape-inside:url(#b)" transform="translate(55.61 -10.616) scale(.10417)"><tspan x="265.429" y="828.158"><tspan fill="#fff" font-family="Rubik" style="-inkscape-font-specification:Rubik">10</tspan></tspan></text></g><text xml:space="preserve" x="85.457" y="73.039" stroke-width=".104" font-family="sans-serif" font-size="1.528" font-weight="400" style="line-height:1.25;white-space:pre" transform="translate(7.11 2.698)"><tspan><tspan font-family="Lato" style="-inkscape-font-specification:Lato">Trenton</tspan></tspan></text><g transform="translate(7.096 2.686)"><circle cx="84.342" cy="72.51" r=".833" fill="#91745e" paint-order="markers fill stroke"/><text xml:space="preserve" x="7.24" font-family="sans-serif" font-size="13.333" font-weight="400" letter-spacing="-.5" style="line-height:1.25;text-align:center;white-space:pre;shape-inside:url(#c)" transform="translate(55.947 -13.263) scale(.10417)"><tspan x="268.532" y="828.158"><tspan fill="#fff" font-family="Rubik" style="-inkscape-font-specification:Rubik">9</tspan></tspan></text></g><text xml:space="preserve" x="85.436" y="71.055" stroke-width=".104" font-family="sans-serif" font-size="1.528" font-weight="400" style="line-height:1.25;white-space:pre" transform="translate(7.11 2.698)"><tspan><tspan font-family="Lato" style="-inkscape-font-specification:Lato">Schoodic</tspan></tspan></text><g transform="translate(7.138 2.807)"><circle cx="84.301" cy="70.389" r=".833" fill="#753bdc" paint-order="markers fill stroke"/><text xml:space="preserve" x="7.413" font-family="sans-serif" font-size="13.333" font-weight="400" letter-spacing="-.5" style="line-height:1.25;text-align:center;white-space:pre;shape-inside:url(#d)" transform="translate(55.9 -15.391) scale(.10417)"><tspan x="268.272" y="828.158"><tspan fill="#fff" font-family="Rubik" style="-inkscape-font-specification:Rubik">8</tspan></tspan></text></g><text xml:space="preserve" x="85.436" y="69.055" stroke-width=".104" font-family="sans-serif" font-size="1.528" font-weight="400" style="line-height:1.25;white-space:pre" transform="translate(7.11 2.698)"><tspan><tspan font-family="Lato" style="-inkscape-font-specification:Lato">Southwest Harbor</tspan></tspan></text><g transform="translate(6.965 2.747)"><circle cx="84.474" cy="68.449" r=".833" fill="#d133ac" paint-order="markers fill stroke"/><text xml:space="preserve" x="9.902" font-family="sans-serif" font-size="13.333" font-weight="400" letter-spacing="-.5" style="line-height:1.25;text-align:center;white-space:pre;shape-inside:url(#e)" transform="translate(56.072 -17.331) scale(.10417)"><tspan x="269.026" y="828.158"><tspan fill="#fff" font-family="Rubik" style="-inkscape-font-specification:Rubik">7</tspan></tspan></text></g><text xml:space="preserve" x="85.366" y="66.722" stroke-width=".104" font-family="sans-serif" font-size="1.528" font-weight="400" style="line-height:1.25;white-space:pre" transform="translate(7.11 3.031)"><tspan><tspan font-family="Lato" style="-inkscape-font-specification:Lato">Northeast Harbor</tspan></tspan></text><g transform="translate(7.346 3.088)"><circle cx="84.092" cy="66.108" r=".833" fill="#0aaeed" paint-order="markers fill stroke"/><text xml:space="preserve" x="7.096" font-family="sans-serif" font-size="13.333" font-weight="400" letter-spacing="-.5" style="line-height:1.25;text-align:center;white-space:pre;shape-inside:url(#f)" transform="translate(55.686 -19.679) scale(.10417)"><tspan x="268.466" y="828.158"><tspan fill="#fff" font-family="Rubik" style="-inkscape-font-specification:Rubik">6</tspan></tspan></text></g><text xml:space="preserve" x="85.444" y="64.722" stroke-width=".104" font-family="sans-serif" font-size="1.528" font-weight="400" style="line-height:1.25;white-space:pre" transform="translate(7.11 3.031)"><tspan><tspan font-family="Lato" style="-inkscape-font-specification:Lato">Jordan Pond</tspan></tspan></text><g transform="translate(7.003 3.09)"><circle cx="84.435" cy="64.108" r=".833" fill="#9180e7" paint-order="markers fill stroke"/><text xml:space="preserve" x="7.01" font-family="sans-serif" font-size="13.333" font-weight="400" letter-spacing="-.5" style="line-height:1.25;text-align:center;white-space:pre;shape-inside:url(#g)" transform="translate(56.036 -21.68) scale(.10417)"><tspan x="268.512" y="828.158"><tspan fill="#fff" font-family="Rubik" style="-inkscape-font-specification:Rubik">5</tspan></tspan></text></g><text xml:space="preserve" x="85.366" y="62.264" stroke-width=".104" font-family="sans-serif" font-size="1.528" font-weight="400" style="line-height:1.25;white-space:pre" transform="translate(7.11 3.364)"><tspan><tspan font-family="Lato" style="-inkscape-font-specification:Lato">Loop Road</tspan></tspan></text><g transform="translate(7.158 3.416)"><circle cx="84.281" cy="61.781" r=".833" fill="#f3b209" paint-order="markers fill stroke"/><text xml:space="preserve" x="7.342" font-family="sans-serif" font-size="13.333" font-weight="400" letter-spacing="-.5" style="line-height:1.25;text-align:center;white-space:pre;shape-inside:url(#h)" transform="translate(55.882 -24) scale(.10417)"><tspan x="268.299" y="828.158"><tspan fill="#fff" font-family="Rubik" style="-inkscape-font-specification:Rubik">4</tspan></tspan></text></g><text xml:space="preserve" x="85.436" y="60.389" stroke-width=".104" font-family="sans-serif" font-size="1.528" font-weight="400" style="line-height:1.25;white-space:pre" transform="translate(7.11 3.364)"><tspan><tspan font-family="Lato" style="-inkscape-font-specification:Lato">Sand Beach</tspan></tspan></text><g transform="translate(7.052 3.49)"><circle cx="84.387" cy="59.707" r=".833" fill="#276d4b" paint-order="markers fill stroke"/><text xml:space="preserve" x="7.069" font-family="sans-serif" font-size="13.333" font-weight="400" letter-spacing="-.5" style="line-height:1.25;text-align:center;white-space:pre;shape-inside:url(#i)" transform="translate(55.991 -26.08) scale(.10417)"><tspan x="268.446" y="828.158"><tspan fill="#fff" font-family="Rubik" style="-inkscape-font-specification:Rubik">3</tspan></tspan></text></g><text xml:space="preserve" x="92.472" y="61.754" stroke-width=".104" font-family="sans-serif" font-size="1.528" font-weight="400" style="line-height:1.25;white-space:pre"><tspan><tspan font-family="Lato" style="-inkscape-font-specification:Lato">Eden Street</tspan></tspan></text><g transform="translate(7.11 3.364)"><circle cx="84.329" cy="57.833" r=".833" fill="#539fb2" paint-order="markers fill stroke"/><text xml:space="preserve" x="6.916" font-family="sans-serif" font-size="13.333" font-weight="400" letter-spacing="-.5" style="line-height:1.25;text-align:center;white-space:pre;shape-inside:url(#j)" transform="translate(55.93 -27.939) scale(.10417)"><tspan x="268.519" y="828.158"><tspan fill="#fff" font-family="Rubik" style="-inkscape-font-specification:Rubik">2</tspan></tspan></text></g><text xml:space="preserve" x="92.472" y="59.754" stroke-width=".104" font-family="sans-serif" font-size="1.528" font-weight="400" style="line-height:1.25;white-space:pre"><tspan><tspan font-family="Lato" style="-inkscape-font-specification:Lato">Bar Harbor Road</tspan></tspan></text><g transform="translate(7.11 3.364)"><circle cx="84.329" cy="55.833" r=".833" fill="#ff4703" paint-order="markers fill stroke"/><text xml:space="preserve" x="5.89" font-family="sans-serif" font-size="13.333" font-weight="400" letter-spacing="-.5" style="line-height:1.25;text-align:center;white-space:pre;shape-inside:url(#k)" transform="translate(55.873 -29.947) scale(.10417)"><tspan x="269.559" y="828.158"><tspan fill="#fff" font-family="Rubik" style="-inkscape-font-specification:Rubik">1</tspan></tspan></text></g><path d="M89.606 54.667h16.332v3H89.606z" paint-order="markers fill stroke"/><text xml:space="preserve" x="95.782" y="56.78" stroke-width=".104" font-family="sans-serif" font-size="2.222" font-weight="400" style="line-height:1.25;text-align:center;white-space:pre" transform="translate(1.94 .005)"><tspan fill="#fff" font-family="Lato" font-weight="700" style="-inkscape-font-specification:&quot;Lato Bold&quot;;text-align:center" text-anchor="middle">Key to routes</tspan></text></svg>