<svg width="11in" height="8.5in" version="1.1" viewBox="0 0 110 85" xmlns="http://www.w3.org/2000/svg" xmlns:cc="http://creativecommons.org/ns#" xmlns:dc="http://purl.org/dc/elements/1.1/" xmlns:rdf="http://www.w3.org/1999/02/22-rdf-syntax-ns#" xmlns:xlink="http://www.w3.org/1999/xlink"><title>Island Explorer route map</title><metadata><rdf:RDF><cc:Work rdf:about=""><dc:format>image/svg+xml</dc:format><dc:type rdf:resource="http://purl.org/dc/dcmitype/StillImage"/><dc:title>Island Explorer route map</dc:title><dc:date>June 7, 2024</dc:date><dc:creator><cc:Agent><dc:title>Richard L. McNeary II</dc:title></cc:Agent></dc:creator><dc:language>en-US</dc:language><dc:subject><rdf:Bag><rdf:li>Mount Desert Island Explorer Acadia National Park Bar Harbor public transportation</rdf:li></rdf:Bag></dc:subject><dc:rights><cc:Agent><dc:title>Copyright 2017, 2018, 2019, 2020, 2021, 2022, 2023, 2024</dc:title></cc:Agent></dc:rights><cc:license rdf:resource="http://creativecommons.org/licenses/by-sa/4.0/"/><dc:description>8.5 x 11: Display units = "in", Scale = "625"</dc:description></cc:Work><cc:License rdf:about="http://creativecommons.org/licenses/by-sa/4.0/"><cc:permits rdf:resource="http://creativecommons.org/ns#Reproduction"/><cc:permits rdf:resource="http://creativecommons.org/ns#Distribution"/><cc:requires rdf:resource="http://creativecommons.org/ns#Notice"/><cc:requires rdf:resource="http://creativecommons.org/ns#Attribution"/><cc:permits rdf:resource="http://creativecommons.org/ns#DerivativeWorks"/><cc:requires rdf:resource="http://creativecommons.org/ns#ShareAlike"/></cc:License></rdf:RDF></metadata><g><rect width="110" height="85" fill="#fff" style="paint-order:markers fill stroke"/><g fill="#e3f2f7" stroke-linejoin="bevel" stroke-opacity=".873817" stroke-width=".45"><path d="m0.00737352 32.3356h14.828726l32.3301-32.330099 35.9964-9.1e-7 -1e-6 11.332201h-41.329199l-41.829149 41.829149z" style="paint-order:markers fill stroke"/><path d="m83.829199 12.004301-0.6666-0.6666v-11.3322l4.999501-9.1e-7v37.9962l0.6666 0.6666h21.1713v46.3287h-26.837401v-16.9983l0.6666-0.6666z" style="paint-order:markers fill stroke"/><path d="m32.1677 45.001 0.6666-0.6666h5.6661l0.6666 0.6666v32.3301l0.6666 0.6666h33.329999l10.6656-10.6656h26.170801v17.6649l-110 3e-3v-43.332h5.1704v0.3333l-0.6666 0.6666 6e-7 34.6632 0.6666 0.6666h26.330699l0.6666-0.6666z" style="paint-order:markers fill stroke"/></g><g fill="#6eadc1" font-family="sans-serif" font-size="1.25px" stroke-width=".104167"><text x="33.939087" y="62.880924" style="line-height:1.25;white-space:pre" xml:space="preserve"><tspan><tspan font-family="'Merriweather Sans'" font-style="italic" stroke-width=".104167" text-align="center">Somes
</tspan></tspan><tspan><tspan font-family="'Merriweather Sans'" font-style="italic" stroke-width=".104167" text-align="center">Sound</tspan></tspan></text><text x="7.0168576" y="38.560623" text-align="center" text-anchor="middle" style="line-height:1.25;white-space:pre" xml:space="preserve"><tspan stroke-width=".104167" text-align="center" text-anchor="middle"><tspan font-family="'Merriweather Sans'" font-style="italic" stroke-width=".104167" text-align="center" text-anchor="middle">Blue Hill Bay</tspan></tspan></text><text x="97.037643" y="47.588314" text-align="center" text-anchor="middle" style="line-height:1.25;white-space:pre" xml:space="preserve"><tspan stroke-width=".104167" text-align="center" text-anchor="middle"><tspan font-family="'Merriweather Sans'" font-style="italic" stroke-width=".104167" text-align="center" text-anchor="middle">Frenchman Bay</tspan></tspan></text></g></g><g transform="translate(5019.8157,2745)"><g fill="none"><path d="m-4944.319-2703.9996h-25.9974c-0.6666 0-1.3332 0.3343-1.6665 0.6666" stroke="#131415" stroke-width=".67"/><g stroke="#ff4703"><path d="m-4943.9857-2704.3319v-23.331c0-0.9999-0.8735-1.9769-1.9998-1.9998h-25.3308c-0.6666 0-0.9999 0-1.3332 0.3333l-9.9148 9.9148" stroke-width=".67"/><g stroke-width=".6"><path d="m-4969.9829-2730.6628-5e-4 0.9999"/><path d="m-4973.9851-2727.9938-0.7067-0.7073"/><path d="m-4978.9707-2723.0082-0.7067-0.7073"/></g></g></g><g fill="#000000" font-family="Lato" font-size=".972222px" font-weight="bold" letter-spacing="0px" stroke-width="1px" word-spacing="0px"><text x="-4963.3105" y="-2731.7236" text-anchor="middle" style="line-height:105.4%" xml:space="preserve"><tspan x="-4963.3105" y="-2731.7236" text-align="center">Hulls Cove</tspan><tspan x="-4963.3105" y="-2730.6704" text-align="center">Visitor Center</tspan></text><text x="-4969.9653" y="-2732.2246" text-anchor="middle" style="line-height:105.4%" xml:space="preserve"><tspan x="-4969.9653" y="-2732.2246" text-align="center">Bar Harbor</tspan><tspan x="-4969.9653" y="-2731.1714" text-align="center">Campground</tspan></text><text x="-4974.9331" y="-2728.9712" style="line-height:105.4%" xml:space="preserve"><tspan x="-4974.9331" y="-2728.9712" font-size=".972222px" text-align="end" text-anchor="end">Hadley Point</tspan></text><text x="-4983.1675" y="-2720.2268" style="line-height:105.4%" xml:space="preserve"><tspan x="-4983.1675" y="-2720.2268" font-size=".972222px" text-align="end" text-anchor="end">Oceanarium</tspan></text><text x="-4979.8398" y="-2726.0017" text-anchor="end" style="line-height:105.4%" xml:space="preserve"><tspan x="-4979.8398" y="-2726.0017" text-align="end">Mt Desert</tspan><tspan x="-4979.8398" y="-2724.9485" text-align="end">Narrows</tspan><tspan x="-4979.8398" y="-2723.8955" text-align="end">Campground</tspan></text></g><g fill="none"><path d="m-4982.0932-2718.9433-0.9423-0.9426" stroke="#ff4703" stroke-width=".6"/><g stroke="#91745e"><path d="m-5007.646-2731.3292 12.9987 12.9987c0.3333 0.3333 0.3333 0.6666 0.3333 1.3332v9.6657c0 0.6666 0.6666 1.3332 1.3332 1.3332h46.3287c0.6666 0 1.9998 0.9999 2.3331 1.3332" stroke-width=".669999"/><g stroke-width=".6"><path d="m-4994.3138-2709.3316 0.9999 5e-4"/><path d="m-4994.3138-2712.6646 0.9999 5e-4"/><path d="m-4994.3138-2715.9976 0.9999 3e-4"/><path d="m-4999.6059-2724.7034-0.7075 0.7068"/><path d="m-5003.2724-2728.3696-0.7073 0.7067"/></g></g></g><g fill="#000000" font-family="Lato" font-size=".972222px" font-weight="bold" letter-spacing="0px" stroke-width="1px" word-spacing="0px"><g><text x="-4992.9927" y="-2708.9739" style="line-height:105.4%" xml:space="preserve"><tspan x="-4992.9927" y="-2708.9739" font-size=".972222px">Town Hill</tspan></text><text x="-4992.9927" y="-2712.3169" style="line-height:105.4%" xml:space="preserve"><tspan x="-4992.9927" y="-2712.3169" font-size=".972222px">Terramore</tspan></text><text x="-4999.2583" y="-2726.1912" style="line-height:105.4%" xml:space="preserve"><tspan x="-4999.2583" y="-2726.1912">Narrows Too</tspan><tspan x="-4999.2583" y="-2725.1379">Campground</tspan></text><text x="-5002.8589" y="-2729.769" style="line-height:105.4%" xml:space="preserve"><tspan x="-5002.8589" y="-2729.769">Bar Harbor</tspan><tspan x="-5002.8589" y="-2728.7158">Airport</tspan></text></g><text x="-5001.707" y="-2732.1636" text-align="center" text-anchor="middle" style="line-height:105.4%" xml:space="preserve"><tspan x="-5001.707" y="-2732.1636" font-size=".972222px" text-align="center" text-anchor="middle">Acadia Gateway Center</tspan></text><text x="-4993.0107" y="-2716.2505" style="line-height:105.4%" xml:space="preserve"><tspan x="-4993.0107" y="-2716.2505"><tspan font-size=".972222px">Bar Harbor KOA</tspan></tspan><tspan x="-4993.0107" y="-2715.1973">Campground</tspan></text></g><g fill="none"><path d="m-5007.1747-2731.8003-0.9426 0.9422" stroke="#91745e" stroke-width=".6"/><g stroke="#d133ac"><path d="m-4944.319-2705.3328h-37.9962c-0.774 1e-4 -1.6828 0.3538-1.9998 1.0009-0.3398-0.6536-1.2453-0.9999-1.9998-0.9999h-6.666c-0.8047 0-1.3332 0.6666-1.3332 1.3332v15.6651c0 1.0381-0.9617 1.9998-1.9998 1.9998h-14.3319c-0.6666 0-1.3332 0.6666-1.3332 1.3332v13.9986c0 0.6666 0.6666 1.3332 1.3332 1.3332h11.3322" stroke-width=".67"/><g stroke-width=".6"><path d="m-4995.3139-2701.9993 0.9999 5e-4"/><path d="m-4995.3139-2694.0001 0.9999 5e-4"/><path d="m-4995.3141-2697.9994 0.9999 5e-4"/></g></g></g><g fill="#000000" font-family="Lato" font-size=".972222px" font-weight="bold" letter-spacing="0px" stroke-width="1px" word-spacing="0px"><g text-anchor="end"><text x="-4995.6143" y="-2701.7007" text-align="end" style="line-height:105.4%" xml:space="preserve"><tspan x="-4995.6143" y="-2701.7007" font-size=".972222px" text-align="end" text-anchor="end">Somesville</tspan></text><text x="-4995.6143" y="-2697.7058" text-align="end" style="line-height:105.4%" xml:space="preserve"><tspan x="-4995.6143" y="-2697.7058" font-size=".972222px" text-align="end" text-anchor="end">Echo Lake</tspan></text><text x="-4995.5947" y="-2694.2231" text-align="end" style="line-height:105.4%" xml:space="preserve"><tspan x="-4995.5947" y="-2694.2231" text-align="end">Smuggler's Den</tspan><tspan x="-4995.5947" y="-2693.1699" text-align="end">Campground</tspan></text><text x="-4995.9912" y="-2689.8074" text-align="end" style="line-height:105.4%" xml:space="preserve"><tspan x="-4995.9912" y="-2689.8074" text-align="end">Southwest</tspan><tspan x="-4995.9912" y="-2688.7542" text-align="end">Harbor</tspan></text></g><text x="-5010.7168" y="-2680.8369" text-align="center" style="line-height:105.4%" xml:space="preserve"><tspan x="-5010.7168" y="-2680.8369" text-align="start">Bass Harbor</tspan><tspan x="-5010.7168" y="-2679.7837" text-align="start">Post Office</tspan></text></g><path d="m-5010.979-2680.6671-0.9999-5e-4" fill="none" stroke="#d133ac" stroke-width=".6"/><path d="m-5010.979-2674.6677-0.9999-5e-4" fill="none" stroke="#d133ac" stroke-width=".6"/><text x="-5010.6758" y="-2674.9214" fill="#000000" font-family="Lato" font-size=".972222px" font-weight="bold" letter-spacing="0px" stroke-width="1px" text-align="center" word-spacing="0px" style="line-height:105.4%" xml:space="preserve"><tspan x="-5010.6758" y="-2674.9214" text-align="start">Bass Harbor</tspan><tspan x="-5010.6758" y="-2673.8682" text-align="start">Campground</tspan></text><text x="-4998.6646" y="-2669.9219" fill="#000000" font-family="Lato" font-size=".972222px" font-weight="bold" letter-spacing="0px" stroke-width="1px" word-spacing="0px" style="line-height:105.4%" xml:space="preserve"><tspan x="-4998.6646" y="-2669.9219">Seawall</tspan><tspan x="-4998.6646" y="-2668.8687">Campground</tspan></text><path transform="translate(-1990,-2745)" d="m-3009.2802 74.664786-2e-4 1.333028" fill="none" stroke="#d133ac" stroke-width=".6"/></g><g transform="translate(3029.8157)"><g fill="none" stroke="#0387ce"><path d="m-3004.6473 55.3333h3.333m-20.6646-3.6663v4.9995c0 0.6666 0.6666 1.3332 1.3332 1.3332h14.3319c0.6666 0 1.3332-0.6666 1.3332-1.3332" stroke-width=".67"/><path d="m-3004.9806 55v6.666" stroke-width=".67"/><path d="m-3020.979 54.333902-0.9999-5e-4" stroke-width=".6"/></g><g fill="#000000" font-family="Lato" font-size=".972222px" font-weight="bold" letter-spacing="0px" stroke-width="1px" word-spacing="0px"><text x="-3020.6655" y="54.631462" style="line-height:105.4%" xml:space="preserve"><tspan x="-3020.6655" y="54.631462" font-size=".972222px">Tremont School</tspan></text><text x="-3021.9817" y="50.959572" text-align="center" text-anchor="middle" style="line-height:105.4%" xml:space="preserve"><tspan x="-3021.9817" y="50.959572" font-size=".972222px" text-align="center" text-anchor="middle">Bernard</tspan></text><text x="-3000.6226" y="55.192501" style="line-height:105.4%" xml:space="preserve"><tspan x="-3000.6226" y="55.192501">Clark</tspan><tspan x="-3000.6226" y="56.245655">Point</tspan></text></g><path d="m-3022.6454 51.666852 1.333 3e-4" fill="none" stroke="#0387ce" stroke-width=".6"/><path d="m-3001.2812 55.9998 2e-4 -1.333" fill="none" stroke="#0387ce" stroke-width=".6"/><text x="-3002.1343" y="63.054962" fill="#000000" font-family="Lato" font-size=".972222px" font-weight="bold" letter-spacing="0px" stroke-width="1px" text-align="end" text-anchor="end" word-spacing="0px" style="line-height:105.4%" xml:space="preserve"><tspan x="-3002.1343" y="63.054962" font-size=".972222px" text-align="end" text-anchor="end">Manset Dock</tspan></text><path d="m-3005.6471 61.699 1.333 3e-4" fill="none" stroke="#0387ce" stroke-width=".6"/></g><g transform="translate(5019.8157,2745)"><g fill="none" stroke="#0aaeed"><path d="m-4944.319-2704.6652h-25.9974c-0.6666 0-1.6665 0.3333-1.9998 0.9999-0.3333-0.6666-1.3332-0.9997-1.9998-0.9999h-3.333c-0.628-2e-4 -1.3332 0.7032-1.3332 1.3312v32.3331c0 0.6666 0.6666 1.3332 1.3332 1.3332h12.6654c0.6666 0 1.3332-0.6666 1.3332-1.3332v-10.6656" stroke-width=".67"/><g stroke-width=".6"><path d="m-4978.982-2692.0001 0.9999 5e-4"/><path d="m-4978.982-2682.6677 0.9999 6e-4"/><path d="m-4965.6502-2669.6687-6e-4 0.9999"/></g></g><g fill="#000000" font-family="Lato" font-size=".972222px" font-weight="bold" letter-spacing="0px" stroke-width="1px" word-spacing="0px"><text x="-4977.687" y="-2692.146" style="line-height:105.4%" xml:space="preserve"><tspan x="-4977.687" y="-2692.146">Brown Mountain</tspan><tspan x="-4977.687" y="-2691.0928">Gatehouse</tspan></text><text x="-4977.7085" y="-2682.813" style="line-height:105.4%" xml:space="preserve"><tspan x="-4977.7085" y="-2682.813">Northeast</tspan><tspan x="-4977.7085" y="-2681.7598">Harbor</tspan></text><text x="-4968.2251" y="-2667.6128" style="line-height:105.4%" xml:space="preserve"><tspan x="-4968.2251" y="-2667.6128" font-size=".972222px">Seal Harbor</tspan></text></g><path d="m-4983.9817-2703.9986c0.3333-0.3333 0.9999-0.6666 1.6665-0.6666h1.9998c0.6666 0 1.3332 0.6666 1.3332 1.3332v0.3333" fill="none" stroke="#0aaeed" stroke-width=".67"/><path d="m-4980.482-2704.6669h2.9997" fill="none" stroke="#0aaeed" stroke-width=".67"/></g><g transform="translate(3029.8157,1555)"><g fill="none"><path d="m-2953.3191-1514.6652 16.3317-18.3315" stroke="#c5d3da" stroke-dasharray="1.1, 1.1" stroke-dashoffset=".22" stroke-linecap="round" stroke-linejoin="round" stroke-width=".55"/><g><path d="m-2936.9877-1537.9962v14.9985c0 0.6666 0.6666 1.3332 1.3332 1.3332h7.3326c0.6666 0 1.3332-0.6666 1.3332-1.3332v-16.9983" stroke="#753bdc" stroke-width=".670002"/><path d="m-2937.6945-1528.3709 0.7071 0.707 0.707-0.707" stroke="#fff" stroke-width=".35"/><path d="m-2937.6945-1524.7046 0.7071 0.707 0.707-0.707" stroke="#fff" stroke-width=".35"/></g><g stroke="#753bdc"><path d="m-2936.9874-1531.3302c0 0.6666 0.6666 1.3332 1.3332 1.3332h7.3323c0.6666 0 1.3332-0.6666 1.3332-1.3332" stroke-width=".670002"/><g stroke-width=".6"><path d="m-2936.9875-1525.9977 0.9999 5e-4"/><path d="m-2936.9875-1532.997 0.9999 6e-4"/><path d="m-2927.9886-1535.9969 0.9999 5e-4"/><path d="m-2931.9879-1521.6647-5e-4 0.9999"/></g></g></g><g fill="#000000" font-family="Lato" font-size=".972222px" font-weight="bold" letter-spacing="0px" stroke-width="1px" word-spacing="0px"><text x="-2931.9878" y="-1519.6089" text-align="center" text-anchor="middle" style="line-height:105.4%" xml:space="preserve"><tspan x="-2931.9878" y="-1519.6089" font-size=".972222px" text-align="center" text-anchor="middle">Schoodic Point</tspan></text><g><text x="-2935.6843" y="-1526.2208" style="line-height:105.4%" xml:space="preserve"><tspan x="-2935.6843" y="-1526.2208">Schoodic Woods</tspan><tspan x="-2935.6843" y="-1525.1677">Campground</tspan></text><text x="-2935.7156" y="-1532.7861" style="line-height:105.4%" xml:space="preserve"><tspan x="-2935.7156" y="-1532.7861" font-size=".972222px">Ferry Terminal</tspan></text><text x="-2936.9827" y="-1538.6705" style="line-height:105.4%" xml:space="preserve"><tspan x="-2936.9827" y="-1538.6705" font-size=".972222px" text-align="center" text-anchor="middle">Winter Harbor</tspan></text></g><text x="-2928.332" y="-1535.703" text-align="end" text-anchor="end" style="line-height:105.4%" xml:space="preserve"><tspan x="-2928.332" y="-1535.703" font-size=".972222px" text-align="end" text-anchor="end">Birch Harbor</tspan></text><text x="-2927.0186" y="-1540.8254" text-align="center" text-anchor="middle" style="line-height:105.4%" xml:space="preserve"><tspan x="-2927.0186" y="-1540.8254" font-size=".972222px" text-align="center" text-anchor="middle">Prospect Harbor</tspan></text></g><g fill="none"><path d="m-2937.6542-1538.0295 1.333 3e-4" stroke="#753bdc" stroke-width=".6"/><path d="m-2927.6552-1540.0293 1.333 3e-4" stroke="#753bdc" stroke-width=".6"/><g stroke="#fff" stroke-width=".35"><path d="m-2931.6142-1530.7041s-0.707 0.7071-0.707 0.7071l0.707 0.707"/><path d="m-2926.2813-1525.6237-0.7071-0.707-0.707 0.707"/><path d="m-2934.6947-1520.9574s0.707-0.7071 0.707-0.7071l-0.707-0.707"/><path d="m-2930.0285-1520.9574s0.707-0.7071 0.707-0.7071l-0.707-0.707"/></g></g></g><g transform="translate(5019.8157,2745)"><path transform="translate(-5019.8157,-2745)" d="m57.4985 38.335h-1.9998v3.333h1.9998z" color="#000000" fill="#fff" fill-opacity=".847059" fill-rule="evenodd" stroke-width="1.58113" style="-inkscape-stroke:none"/><g fill="none"><path d="m-4962.9838-2729.3319v27.9997c0 0.9999-0.6666 1.6665-0.6666 1.9998s0.6666 0.9999 0.6666 1.9998v0.8909c0 0.5276 0.2019 0.9775 0.5352 1.3108l6.961 6.961c0.3345 0.3345 0.7637 0.503 1.2015 0.503 0.5207 0 0.968 0.3333 1.3013 0.6666 0.3333-0.3333 0.6666-0.6666 1.3332-0.6666h5.6661c0.9999 0 1.9998 0.9999 1.9998 1.9998v7.9992c0 0.6606-0.1581 1.1579-0.4766 1.4764l-6.1874 6.1895c-0.3353 0.3353-0.6686 0.3333-1.3352 0.3358h-9.6657c-0.6666 0-1.3332-0.6691-1.3332-1.3357v-25.6641" stroke="#f3b209" stroke-width=".67"/><g stroke="#fff" stroke-width=".35"><path transform="translate(-.52258113 1.8577811)" d="m-4948.6519-2674.6682v1.3332h1.3331"/><path transform="translate(3.7499993,1.3331997)" d="m-4959.708-2671.9446-0.9427 0.9427 0.9427 0.9427"/><path transform="translate(1.0067015e-6,-1.8528666)" d="m-4962.0411-2682.3913-0.9427-0.9427-0.9427 0.9427"/><path transform="translate(1.0067015e-6,-3.1414717)" d="m-4962.0411-2687.7241-0.9427-0.9427-0.9427 0.9427"/></g></g><path d="m-4962.9844-2679.5388-0.3327 0.3327v0.4961l0.3327-0.3327 0.8203 0.8183 0.2461-0.248z" color="#000000" fill="#fff" style="-inkscape-stroke:none"/><path d="m-4962.9838-2674.0281-0.3327 0.3327v0.4961l0.3327-0.3327 0.8203 0.8183 0.2461-0.2481z" color="#000000" fill="#fff" style="-inkscape-stroke:none"/><g><path d="m-4962.9838-2676.668 0.9999 5e-4" fill="none" stroke="#f3b209" stroke-width=".6"/><text x="-4961.6538" y="-2676.8132" fill="#000000" font-family="Lato" font-size=".972222px" font-weight="bold" letter-spacing="0px" stroke-width="1px" word-spacing="0px" style="line-height:105.4%" xml:space="preserve"><tspan x="-4961.6538" y="-2676.8132">Wildwood</tspan><tspan x="-4961.6538" y="-2675.76">Stables</tspan></text></g></g><g><g fill="none"><path d="m75.829999 41.3347 3e-6 2.334102-3e-6 3.998598c0 0.816618-0.216284 1.216185-0.529717 1.529618l-6.136282 6.136282c-0.3333 0.3333-0.3333 0.6666-0.3333 1.3332v10.6656c0 0.6666 0 0.9999 0.3333 1.3332l2.223557 2.223557c0.235926 0.235926 0.707196 0.235854 0.94284 2.1e-4l2.504123-2.504104c0.3333-0.3333 0.328878-0.719541 0.328878-1.386141v-7.6649c0-0.6666-0.6696-1.335366-1.3362-1.3352l-3.996598 9.78e-4c-0.6666 0-0.9999-0.3333-0.9999-0.6666s-0.3333-0.6666-0.9999-0.6666h-2.2389c-0.3753 0-0.599-0.119-0.82-0.34l-6.8753-6.8753c-0.3788-0.3788-0.3981-0.5703-0.3981-1.1531v-0.6307c0-0.9047-0.4832-1.9999-0.9999-1.9998 0.5167-1e-4 0.9999-1.1238 0.9999-1.9998v-0.6666c0-0.6666 0.6666-1.3332 1.3332-1.3332l14.3319 1e-3c0.5727 0.018 1.9998-0.9999 2.3331-1.3332" fill-rule="evenodd" stroke="#276d4b" stroke-width=".669999"><desc>Sand Beach route</desc></path><g stroke="#fff" stroke-width=".35"><path transform="translate(-.067698 3.265302)" d="m71.49708 66.3322h-1.33318v1.333179"/><path transform="rotate(-90,70.839735,62.323365)" d="m74.554 63.3897 0.9427 0.9427 0.9427-0.9427"/><path transform="translate(-5.4760344e-7,-2.0238033)" d="m74.554 63.3897 0.9427 0.9427 0.9427-0.9427"/><path transform="translate(-5.4760344e-7,1.6877582)" d="m74.554 63.3897 0.9427 0.9427 0.9427-0.9427"/><path transform="matrix(1,0,0,-1,-6.666,126.67712)" d="m74.554 63.3897 0.9427 0.9427 0.9427-0.9427"/></g><path d="m73.660435 71.62299-1.178394-1.178394" stroke="#276d4b" stroke-width=".6"/></g><g><path d="m74.985578 66.98643h1.6665" fill="none" stroke="#276d4b" stroke-width=".6"/><text x="77.173775" y="67.270058" fill="#000000" font-family="Lato" font-size=".972222px" font-weight="bold" letter-spacing="0px" stroke-width="1px" word-spacing="0px" style="line-height:105.4%" xml:space="preserve"><tspan x="77.173775" y="67.270058" font-size=".972222px">Otter Cliffs</tspan></text></g><text x="74.290581" y="72.789673" fill="#000000" font-family="Lato" font-size=".972222px" font-weight="bold" letter-spacing="0px" stroke-width="1px" word-spacing="0px" style="line-height:105.4%" xml:space="preserve"><tspan x="74.290581" y="72.789673" font-size=".972222px">Fabbri</tspan></text><path transform="translate(-1.7078,1.4848)" d="m71.205071 54.848378h-1.3332v1.9998h1.3332z" color="#000000" fill="#fff" fill-opacity=".847059" fill-rule="evenodd" style="-inkscape-stroke:none"/><path d="m69.167321 56.318965h-0.669921v2.667869h0.669921z" color="#000000" fill="#276d4b" fill-rule="evenodd" stroke-width="1.2647" style="-inkscape-stroke:none"/><g fill="none"><path transform="translate(5022.7157,2742.9618)" d="m-4948.6519-2674.6682v1.3332h1.3331" stroke="#fff" stroke-width=".35"/><path d="m66.8309 57.9997v-0.9999c0-0.614111 0.559627-0.840438 1.526094-1.806906l6.475101-6.475101c0.331304-0.331304 0.331304-0.673379 0.331304-1.329612v-7.000891" stroke="#f3008e" stroke-width=".670001"/><path transform="translate(-5.4759737e-7,-3.9995998)" d="m76.4394 49.61-0.9427-0.9427-0.9427 0.9427" stroke="#fff" stroke-width=".35"/><path transform="translate(4.0111373,-5.4823943)" d="m68.1641 58.66628v-1.33318h-1.333179" stroke="#fff" stroke-width=".35"/></g></g><g transform="translate(3029.8157)"><g><text x="-2965.1257" y="72.36084" fill="#000000" font-family="Lato" font-size=".972222px" font-weight="bold" letter-spacing="0px" stroke-width="1px" text-align="end" text-anchor="end" word-spacing="0px" style="line-height:105.4%" xml:space="preserve"><tspan x="-2965.1257" y="72.36084" text-align="end">Blackwoods</tspan><tspan x="-2965.1257" y="73.413994" text-align="end">Campground</tspan></text><path d="m-2965.1225 70.860307 0.9424 0.942786" fill="none" stroke="#f3008e" stroke-width=".6"/><path transform="translate(-3029.8157)" d="m75.163402 40.668102c0 0.6666-1.6665 1.6665-2.6664 1.6665l-11.998802-2e-6h-1.6428c-0.3301 0-0.6903 0.360221-0.6903 0.703764v5.401885c0 0.332031 0 0.336518 0.2048 0.536793l6.7874 6.787419c0.2357 0.235681 0.2353 0.235439 0.5725 0.235439h0.1012c0.6666 0 0.9999 0.3333 0.9999 0.9999v1.3332h0.3333c0.3333 0 0.9999 0.3333 0.9999 1.3332v7.6659c0 0.6666 0 0.9999-0.3333 1.3332l-2.6664 2.6664" fill="none" stroke="#f3008e" stroke-width=".670001"/></g><path d="m-2963.5576 41.3347-0.6666 0.6666 1.0664 1.066406 0.248-0.246094-0.8203-0.820312 0.6666-0.6666z" color="#000000" fill="#fff" style="-inkscape-stroke:none"/><path d="m-2972.2307 45.576821 0.5801 0.5801 1.0664-1.0665-0.2461-0.246-0.8203 0.8183-0.4192-0.4192z" color="#000000" fill="#fff" style="-inkscape-stroke:none"/><path transform="rotate(135,-1448.7633,-571.23832)" d="m68.578272 62.746772-1.414072-1.414072-1.414072 1.414072" fill="none" stroke="#fff" stroke-width=".35"/></g><g transform="translate(5019.8157,2745)"><path d="m-4963.6504-2682.3341v-14.9985c0-0.9999-0.6666-1.6665-0.6666-1.9998s0.6666-0.9999 0.6666-1.9998v-27.6639" fill="none" stroke="#9180e7" stroke-linejoin="bevel" stroke-width=".67"/><g><path d="m-4963.6504-2687.3336h1.6665" fill="none" stroke="#9180e7" stroke-width=".6"/><text x="-4961.7119" y="-2687.4795" fill="#000000" font-family="Lato" font-size=".972222px" font-weight="bold" letter-spacing="0px" stroke-width="1px" word-spacing="0px" style="line-height:105.4%" xml:space="preserve"><tspan x="-4961.7119" y="-2687.4795">Bubble</tspan><tspan x="-4961.7119" y="-2686.4263">Pond</tspan></text></g></g><g transform="translate(5018.4821,2744.3344)"><path d="m-4943.3187-2704.3329v-22.6644" fill="none" stroke="#539fb2" stroke-width=".67"/><g fill="#000000" font-family="Lato" font-size=".972222px" font-weight="bold" letter-spacing="0px" stroke-width="1px" word-spacing="0px"><text x="-4944.5981" y="-2718.3079" text-align="center" text-anchor="middle" style="line-height:105.4%" xml:space="preserve"><tspan x="-4944.5981" y="-2718.3079" font-size=".972222px" text-align="end" text-anchor="end">Acadia Inn</tspan></text><text x="-4944.6367" y="-2721.1675" text-align="center" text-anchor="end" style="line-height:105.4%" xml:space="preserve"><tspan x="-4944.6367" y="-2721.1675" text-align="end">Bar Harbor</tspan><tspan x="-4944.6367" y="-2720.1143" text-align="end">Hotel</tspan></text><g><text x="-4941.3252" y="-2717.8389" style="line-height:105.4%" xml:space="preserve"><tspan x="-4941.3252" y="-2717.8389">College of</tspan><tspan x="-4941.3252" y="-2716.7856">the Atlantic</tspan></text><text x="-4941.3125" y="-2722.177" style="line-height:105.4%" xml:space="preserve"><tspan x="-4941.3125" y="-2722.177">Atlantic</tspan><tspan x="-4941.3125" y="-2721.1238">Oceanside</tspan></text><text x="-4941.3735" y="-2726.926" style="line-height:105.4%" xml:space="preserve"><tspan x="-4941.3735" y="-2726.926">Bar Harbor</tspan><tspan x="-4941.3735" y="-2725.8728">Regency</tspan></text><text x="-4941.3306" y="-2724.51" style="line-height:105.4%" xml:space="preserve"><tspan x="-4941.3306" y="-2724.51">Ferry</tspan><tspan x="-4941.3306" y="-2723.4568">Terminal</tspan></text></g></g><path d="m-4943.3201-2711.4948-0.3334 0.3335v0.494l0.3334-0.3335 0.3333 0.3333v-0.494z" color="#000000" fill="#fff" style="-inkscape-stroke:none"/><g fill="none" stroke="#539fb2" stroke-width=".6"><path d="m-4944.3186-2720.9984 0.9999 5e-4"/><path d="m-4943.3187-2726.6976h1.6665"/><path d="m-4943.3187-2724.3309h1.6665"/><path d="m-4943.3187-2721.9978h1.6665"/><path d="m-4943.3187-2717.6649h1.6665"/><path d="m-4944.3186-2718.6653 0.9999 5e-4"/></g></g><g transform="translate(3030.4823)"><g fill="none"><g stroke="#539fb2"><path d="m-2959.3181 34.500348 0.9999 5e-4" stroke-width=".6"/><path d="m-2959.3181 31.353752 0.9999 5e-4" stroke-width=".6"/><path d="m-2955.3185 38.33388c0-0.6666-0.6666-1.3332-1.3332-1.3332h-0.3333c-0.7034 0-1.3332-0.6666-1.3332-1.3337v-5.3323c0-0.6656 0.6666-1.3322 1.3332-1.3322h0.3333c0.6666 0 1.3328-0.666478 1.3328-1.333078m-4e-4 7.664948 4e-4 5.000452" stroke-dashoffset="9.6" stroke-linejoin="bevel" stroke-width=".67" style="paint-order:markers fill stroke"/></g><g stroke="#fff" stroke-width=".35"><path transform="translate(1.0066979e-6,-4.9994986)" d="m-2957.5948 42.944 0.9427-0.9427-0.9427-0.942644"/><path transform="translate(1.0066979e-6,-3.9578319)" d="m-2959.2613 36.124191s0.9427 0.942714 0.9427 0.942714 0.9426-0.942742 0.9426-0.942742"/><path transform="translate(1.0066979e-6,-4.9994986)" d="m-2956.0427 33.059393s-0.9427 0.942707-0.9427 0.942707l0.9428 0.942643"/></g></g><text x="-2959.5928" y="31.633757" fill="#000000" font-family="Lato" font-size=".972222px" font-weight="bold" letter-spacing="0px" stroke-width="1px" text-align="center" text-anchor="middle" word-spacing="0px" style="line-height:105.4%" xml:space="preserve"><tspan x="-2959.5928" y="31.633757" font-size=".972222px" text-align="end" text-anchor="end">Eyrie / Hampton</tspan></text><text x="-2959.5698" y="34.858135" fill="#000000" font-family="Lato" font-size=".972222px" font-weight="bold" letter-spacing="0px" stroke-width="1px" text-align="end" text-anchor="end" word-spacing="0px" style="line-height:105.4%" xml:space="preserve"><tspan x="-2959.5698" y="34.858135" font-size=".972222px" text-align="end" text-anchor="end">Wonder View Inn</tspan></text></g><g transform="translate(5019.8157,2745)"><desc>station</desc><desc>station</desc><desc>station</desc><desc>station</desc><desc>station</desc><desc>station</desc><desc>station</desc><desc>station</desc><g fill="#fff" stroke="#000"><g stroke-width=".3"><circle transform="scale(-1)" cx="4975.7993" cy="2705.3318" r=".84999949"><desc>station</desc></circle><circle transform="scale(-1)" cx="4984.3149" cy="2704.332" r=".84999949"><desc>station</desc></circle><circle transform="scale(-1)" cx="4972.3164" cy="2703.6653" r=".84999949"><desc>station</desc></circle><circle transform="scale(-1)" cx="4994.6475" cy="2689.6667" r=".84999949"><desc>station</desc></circle><circle transform="scale(-1)" cx="4952.9849" cy="2686.667" r=".84999949"><desc>station</desc></circle><circle transform="scale(-1)" cx="4963.6504" cy="2699.3325" r=".84999949"><desc>station</desc></circle><circle transform="scale(-1)" cx="4963.3179" cy="2729.3293" r=".84999949"><desc>station</desc></circle></g><circle transform="scale(-1)" cx="4944.3174" cy="2704.666" r="1.4199995" stroke-width=".49"><desc>station</desc></circle></g><g fill="#000000" font-family="Lato" font-size=".972222px" font-weight="bold" letter-spacing="0px" stroke-width="1px" word-spacing="0px"><text x="-4984.2974" y="-2702.2959" text-align="center" text-anchor="middle" style="line-height:105.4%" xml:space="preserve"><tspan x="-4984.2974" y="-2702.2959" text-align="center">Mt. Desert</tspan><tspan x="-4984.2974" y="-2701.2427" text-align="center">Campground</tspan></text><text x="-4972.335" y="-2701.6099" text-align="center" text-anchor="middle" style="line-height:105.4%" xml:space="preserve"><tspan x="-4972.335" y="-2701.6099" font-family="Lato" font-size=".972222px" font-weight="bold" text-align="center" text-anchor="middle">Eagle Lake</tspan></text><text x="-4964.9707" y="-2699.5857" text-align="end" text-anchor="end" style="line-height:105.4%" xml:space="preserve"><tspan x="-4964.9707" y="-2699.5857" text-align="end">Cadillac</tspan><tspan x="-4964.9707" y="-2698.5325" text-align="end">North Ridge</tspan></text><text x="-4975.7983" y="-2706.8406" text-align="center" text-anchor="middle" style="line-height:105.4%" xml:space="preserve"><tspan x="-4975.7983" y="-2706.8406" font-size=".972222px" text-align="center" text-anchor="middle">MDI High School</tspan></text><text transform="translate(2.9166667e-5)" x="-4942.3804" y="-2704.3728" style="line-height:105.4%" xml:space="preserve"><tspan x="-4942.3804" y="-2704.3728" font-size=".972222px">Village Green</tspan></text></g><g transform="translate(0 -.52083333)"><circle transform="scale(-1)" cx="4944.3477" cy="2684.2861" r=".84999949" fill="#fff" stroke="#000" stroke-width=".3"><desc>station</desc></circle><text x="-4943.0464" y="-2683.988" fill="#000000" font-family="Lato" font-size=".972222px" font-weight="bold" letter-spacing="0px" stroke-width="1px" word-spacing="0px" style="line-height:105.4%" xml:space="preserve"><tspan x="-4943.0464" y="-2683.988" font-size=".972222px">Sand Beach</tspan></text></g><text x="-4953.8921" y="-2685.1975" fill="#000000" font-family="Lato" font-size=".972222px" font-weight="bold" letter-spacing="0px" stroke-width="1px" text-align="end" text-anchor="end" word-spacing="0px" style="line-height:105.4%" xml:space="preserve"><tspan x="-4953.8921" y="-2685.1975" text-align="end">Sieur de</tspan><tspan x="-4953.8921" y="-2684.1443" text-align="end">Monts</tspan></text><g transform="translate(0 -.52050409)"><circle transform="scale(-1)" cx="4944.3262" cy="2680.6091" r=".84999949" fill="#fff" stroke="#000" stroke-width=".3"><desc>station</desc></circle><text x="-4942.6792" y="-2680.252" fill="#000000" font-family="Lato" font-size=".972222px" font-weight="bold" letter-spacing="0px" stroke-width="1px" word-spacing="0px" style="line-height:105.4%" xml:space="preserve"><tspan x="-4942.6792" y="-2680.252" font-size=".972222px">Thunder Hole</tspan></text></g><g transform="translate(0 -.97634279)"><circle transform="scale(-1)" cx="4963.3169" cy="2681.001" r=".84999949" fill="#fff" stroke="#000" stroke-width=".3"><desc>station</desc></circle><text x="-4962.001" y="-2681.146" fill="#000000" font-family="Lato" font-size=".972222px" font-weight="bold" letter-spacing="0px" stroke-width="1px" word-spacing="0px" style="line-height:105.4%" xml:space="preserve"><tspan x="-4962.001" y="-2681.146">Jordan</tspan><tspan x="-4962.001" y="-2680.0928">Pond</tspan></text></g></g><g><rect width="88.162102" height="8.8561506" ry="0" fill="#323232" style="paint-order:markers fill stroke"/><text x="89.705818" y="6.7649932" fill="#000000" font-family="sans-serif" font-size="6.25px" stroke-width=".104167" style="line-height:1.25;white-space:pre" xml:space="preserve"><tspan stroke-width=".104167"><tspan font-family="Rubik" font-weight="600" stroke-width=".104167">2024</tspan></tspan></text><path d="m88.1621 8.806151h21.8379" fill="none" stroke="#323232" stroke-width=".1"/><g fill="#000000" font-family="sans-serif" stroke-width=".104167"><text x="86.218208" y="6.7649932" font-size="6.25px" text-align="end" style="line-height:1.25;white-space:pre" xml:space="preserve"><tspan fill="#ffffff" font-family="Rubik" stroke-width=".104167" text-align="end" text-anchor="end">Island Explorer route map</tspan></text><text x="13.111629" y="82.450233" font-size="1.38889px" style="line-height:1.25;white-space:pre" xml:space="preserve"><tspan stroke-width=".104167"><tspan font-family="Lato" font-style="italic" stroke-width=".104167">Copyright Richard L. McNeary II</tspan></tspan></text><text x="64.724716" y="82.450233" font-size="1.38889px" style="line-height:1.25;white-space:pre" xml:space="preserve"><tspan stroke-width=".104167"><tspan font-family="Lato" font-weight="bold" stroke-width=".104167" text-align="end">https://islandexplorermap.com</tspan></tspan></text></g><g transform="matrix(.08318628 0 0 .08317697 -12.416042 72.987078)" stroke-width="19.8344"><path id="a" d="m182.23532 75.39014 114.06396 0.20312c1.59375 0 3.01758-0.23682 3.01758 3.18018l-0.13965 37.56689h-119.82031v-37.70654c0-1.68457 0.16309-3.24365 2.87842-3.24365z" fill="#aab2ab" nodetypes="ccccccc"/><g id="b" transform="matrix(.872921 0 0 .872921 50.12536 143.2144)"><path id="c" cx="296.35416" cy="264.3577" rx="22.939548" ry="22.939548" d="m187.20944-55.6792c6e-3 8.68024-7.02786 15.72095-15.7081 15.72708-8.68021 5e-3 -15.72205-7.02786-15.72708-15.70804v-0.01904c-5e-3 -8.68134 7.02783-15.72205 15.70807-15.72711 8.68134-0.0056 15.72208 7.02789 15.72711 15.70807v0.01904z" fill="#fff" type="arc"/><g id="d" transform="translate(-289.6157,99.0653)"><path id="e" d="m473.88455-167.54724c3.48541 3.48596 5.22839 7.75391 5.22839 12.80273 0 5.04938-1.7128 9.27148-5.13834 12.66736-3.63531 3.5766-7.93179 5.36432-12.88947 5.36432-4.89777 0-9.11987-1.77261-12.6651-5.31955-3.54584-3.54581-5.31845-7.78299-5.31845-12.71213 0-4.92859 1.77261-9.19598 5.31845-12.80273 3.4552-3.48651 7.67725-5.22894 12.6651-5.22894 5.04829 0 9.31401 1.74243 12.79942 5.22894zm-23.11798 2.34485c-2.94675 2.97638-4.41956 6.46289-4.41956 10.46234 0 3.99835 1.45828 7.4552 4.37424 10.37067 2.91653 2.9165 6.38849 4.37476 10.41705 4.37476 4.02853 0 7.53018-1.47281 10.50656-4.41901 2.8259-2.73584 4.23941-6.17706 4.23941-10.32642 0-4.11804-1.43646-7.61292-4.30768-10.48474-2.87064-2.87067-6.34988-4.30652-10.43829-4.30652-4.08837 0-7.54638 1.44318-10.37173 4.32892zm7.75449 8.70312c-0.45032-0.98163-1.12433-1.47223-2.02325-1.47223-1.58914 0-2.38342 1.06952-2.38342 3.2085 0 2.13959 0.79428 3.20911 2.38342 3.20911 1.04938 0 1.79895-0.5213 2.24866-1.56512l2.20276 1.17303c-1.04993 1.86548-2.62506 2.79901-4.72549 2.79901-1.6199 0-2.91763-0.4967-3.89206-1.48956-0.97607-0.99341-1.46274-2.36273-1.46274-4.10797 0-1.71558 0.50229-3.07709 1.50748-4.08563 1.00519-1.00793 2.25705-1.51251 3.75781-1.51251 2.22012 0 3.80984 0.87488 4.77081 2.62286zm10.36334 0c-0.45087-0.98163-1.11148-1.47223-1.98239-1.47223-1.62106 0-2.43213 1.06952-2.43213 3.2085 0 2.13959 0.81107 3.20911 2.43213 3.20911 1.05103 0 1.78717-0.5213 2.20724-1.56512l2.25201 1.17303c-1.04825 1.86548-2.62119 2.79901-4.71768 2.79901-1.61771 0-2.91263-0.4967-3.88647-1.48956-0.97217-0.99341-1.45938-2.36273-1.45938-4.10797 0-1.71558 0.49448-3.07709 1.48288-4.08563 0.98782-1.00793 2.24527-1.51251 3.77347-1.51251 2.21619 0 3.80368 0.87488 4.76132 2.62286z" stroke-width="19.8344"/></g></g><path d="m297.29639 74.91064h-116.22951c-1.24658 0-2.26074 1.01465-2.26074 2.26123v39.49561c0 0.28174 0.22852 0.51074 0.51025 0.51074h119.73c0.28174 0 0.51074-0.229 0.51074-0.51074v-39.4956c0-1.24659-1.01416-2.26124-2.26074-2.26124zm-116.22951 1.02149h116.22951c0.68359 0 1.23926 0.55615 1.23926 1.23975v27.41846h-83.07375c-3.04492 5.50537-8.91113 9.24365-15.64355 9.24365-6.73535 0-12.6001-3.73486-15.64355-9.24365h-4.34814v-27.41846c-2e-5 -0.6836 0.55663-1.23975 1.24022-1.23975z"/><g enable-background="new    " fill="#fff"><path d="m265.60986 112.8833c0.0801 0.15576 0.1875 0.28174 0.32129 0.37842 0.13379 0.0962 0.29004 0.16797 0.46973 0.21436 0.18066 0.0469 0.36719 0.0703 0.55957 0.0703 0.12988 0 0.26953-0.0107 0.41895-0.0327 0.14844-0.0215 0.28809-0.064 0.41895-0.12598 0.12988-0.062 0.23926-0.14795 0.3252-0.25684 0.0879-0.10889 0.13086-0.24707 0.13086-0.41553 0-0.18018-0.0576-0.32617-0.17285-0.43848-0.11426-0.1123-0.26562-0.20508-0.45215-0.28027-0.18555-0.0742-0.39746-0.13965-0.63281-0.1958-0.23633-0.0562-0.47559-0.11816-0.71777-0.18701-0.24902-0.062-0.49121-0.13818-0.72754-0.22852-0.23535-0.0898-0.44727-0.20703-0.63379-0.3501s-0.33691-0.32178-0.45215-0.53662c-0.11426-0.21484-0.17188-0.47461-0.17188-0.7793 0-0.34277 0.0732-0.63965 0.21875-0.8916 0.14648-0.25195 0.33789-0.46191 0.57422-0.63037 0.23535-0.16797 0.50293-0.29248 0.80176-0.37354 0.29785-0.0806 0.59668-0.12109 0.89453-0.12109 0.34863 0 0.68262 0.0391 1.00293 0.11719 0.31934 0.0776 0.60449 0.2041 0.85254 0.37842 0.24902 0.17432 0.44629 0.39697 0.59277 0.66797 0.14551 0.271 0.21875 0.59961 0.21875 0.98535h-1.42188c-0.0127-0.19922-0.0547-0.36426-0.125-0.49463-0.0713-0.13086-0.16602-0.2334-0.2832-0.30859-0.11816-0.0742-0.25293-0.12744-0.4043-0.1582-0.15234-0.0312-0.31738-0.0469-0.49707-0.0469-0.11719 0-0.23535 0.0127-0.35254 0.0371-0.11816 0.0254-0.22461 0.0688-0.32031 0.13086-0.0967 0.0625-0.17578 0.14014-0.2373 0.2334-0.0615 0.0937-0.0928 0.21191-0.0928 0.35498 0 0.13086 0.0244 0.23682 0.0742 0.31738 0.0498 0.0811 0.14844 0.15576 0.29395 0.22412 0.14551 0.0684 0.34766 0.13721 0.60547 0.20557 0.25781 0.0684 0.59473 0.15576 1.01172 0.26123 0.12402 0.0249 0.2959 0.0703 0.5166 0.13574 0.2207 0.0654 0.43945 0.16943 0.65723 0.3125 0.21777 0.14355 0.40527 0.33496 0.56445 0.57422 0.1582 0.23975 0.2373 0.54639 0.2373 0.91992 0 0.30518-0.0596 0.58838-0.17773 0.84961-0.11816 0.26172-0.29395 0.4873-0.52734 0.67676-0.2334 0.19043-0.52246 0.33789-0.86719 0.44385-0.3457 0.10596-0.74609 0.15869-1.19922 0.15869-0.36719 0-0.72363-0.0454-1.06934-0.13574-0.34473-0.0903-0.65039-0.23242-0.91504-0.42578-0.26367-0.19336-0.47363-0.43994-0.62988-0.73877-0.15527-0.29932-0.22949-0.65381-0.22363-1.06494h1.42188c-3e-5 0.22412 0.04 0.41406 0.12106 0.56933z"/><path d="m273.8667 107.8667 2.49316 6.66406h-1.52246l-0.50391-1.48438h-2.49316l-0.52246 1.48438h-1.47461l2.52051-6.66406zm0.084 4.08594-0.83984-2.44336h-0.0186l-0.86914 2.44336z"/><path d="m239.17821 107.8667c0.31738 0 0.60742 0.0283 0.86914 0.084 0.26172 0.0561 0.48633 0.14795 0.67383 0.27539 0.18652 0.12744 0.33203 0.29688 0.43457 0.5083s0.1543 0.47266 0.1543 0.78369c0 0.33594-0.0762 0.61523-0.22949 0.83936-0.15234 0.22412-0.37891 0.40723-0.67773 0.55029 0.41211 0.11816 0.71973 0.3252 0.92285 0.62109s0.30469 0.65234 0.30469 1.06934c0 0.33594-0.0654 0.62695-0.19629 0.87305-0.13086 0.24561-0.30762 0.44629-0.52832 0.60205-0.22168 0.15576-0.47461 0.271-0.75781 0.34521-0.28418 0.0752-0.5752 0.1123-0.875 0.1123h-3.23633v-6.66406h3.14159zm-0.1875 2.69531c0.26172 0 0.47656-0.062 0.64551-0.18604 0.16797-0.12451 0.25195-0.32568 0.25195-0.60498 0-0.15527-0.0283-0.28271-0.084-0.38184-0.0566-0.0996-0.13086-0.17676-0.22461-0.23291-0.0937-0.0557-0.20117-0.0947-0.32227-0.11621-0.12207-0.022-0.24805-0.0327-0.37891-0.0327h-1.37305v1.55469zm0.0859 2.82813c0.14355 0 0.28027-0.0137 0.41113-0.042 0.13086-0.0278 0.24707-0.0747 0.34668-0.13965 0.0996-0.0654 0.17871-0.1543 0.23828-0.26611 0.0596-0.11181 0.0889-0.25488 0.0889-0.4292 0-0.3418-0.0967-0.58594-0.29004-0.73193-0.19336-0.14599-0.44922-0.21924-0.7666-0.21924h-1.59961v1.82812z"/><path d="m241.88914 107.8667h1.64355l1.56055 2.63184 1.55078-2.63184h1.63379l-2.47363 4.10645v2.55762h-1.46875v-2.59473z"/></g><g id="f" transform="matrix(.624995 0 0 .624995 391.2294 176.9332)"><path id="g" cx="475.97119" cy="252.08646" rx="29.209877" ry="29.209877" d="m-175.0083-139.1153c6e-3 9.4118-7.61725 17.04779-17.02982 17.05481-9.41101 7e-3 -17.047-7.61725-17.05481-17.02979v-0.025c-6e-3 -9.41254 7.6188-17.047 17.02982-17.05481 9.41257-7e-3 17.04855 7.61804 17.05481 17.02985v0.025z" fill="#fff" type="arc"/><g id="h" transform="translate(-23.9521,-89.72962)"><path id="i" d="m-168.2204-68.05536c-5.17194 0-9.54852 1.80469-13.13135 5.41333-3.67661 3.73444-5.51413 8.1532-5.51413 13.25635s1.83752 9.49152 5.51413 13.1626c3.67502 3.67194 8.05316 5.50787 13.13135 5.50787 5.14066 0 9.59537-1.85156 13.36728-5.55475 3.55005-3.51562 5.3266-7.88831 5.3266-13.11572 0-5.22662-1.8078-9.64697-5.42191-13.25635-3.61407-3.60864-8.03756-5.41333-13.27197-5.41333zm0.0469 3.36017c4.23752 0 7.836 1.49298 10.79697 4.48053 2.98907 2.9563 4.48441 6.56567 4.48441 10.82898 0 4.29382-1.46252 7.85712-4.39224 10.68915-3.08438 3.04926-6.71411 4.57349-10.88913 4.57349-4.17505 0-7.7735-1.5094-10.79541-4.52661-3.02188-3.01953-4.53284-6.59692-4.53284-10.73602 0-4.13831 1.52658-7.74847 4.57971-10.82898 2.92815-2.98756 6.51098-4.48054 10.74853-4.48054z"/><path id="j" d="m-176.49548-52.02087c0.74377-4.69769 4.05161-7.20862 8.1954-7.20862 5.96097 0 9.59225 4.32501 9.59225 10.09229 0 5.62738-3.86411 9.99927-9.686 9.99927-4.00473 0-7.58914-2.46484-8.24228-7.30084h4.70319c0.14062 2.51099 1.77032 3.39459 4.09845 3.39459 2.65317 0 4.37817-2.4649 4.37817-6.23291 0-3.95233-1.49063-6.04535-4.28598-6.04535-2.04846 0-3.8172 0.74457-4.19064 3.30157l1.36874-7e-3 -3.70316 3.7016-3.7016-3.7016z"/></g></g><circle cx="242.56226" cy="90.224609" r="10.8064" fill="#fff"/><path d="m245.68994 87.09766c0-0.4165-0.33789-0.75342-0.75391-0.75342h-4.77246c-0.41602 0-0.75391 0.33691-0.75391 0.75342v4.77295h1.33105v5.65234h3.61719v-5.65234h1.33203v-4.77295z"/><circle cx="242.5498" cy="84.083008" r="1.63232"/><path d="m242.53467 78.31836c-3.23145 0-5.96826 1.12744-8.20752 3.38379-2.29785 2.33301-3.44629 5.09521-3.44629 8.28418s1.14844 5.93213 3.44629 8.22705c2.29785 2.29443 5.03418 3.44189 8.20752 3.44189 3.21289 0 5.99805-1.15674 8.35352-3.47168 2.2207-2.19678 3.33008-4.92969 3.33008-8.19727s-1.12891-6.02881-3.3877-8.28418c-2.25879-2.25634-5.02442-3.38378-8.2959-3.38378zm0.0293 2.09961c2.64844 0 4.89746 0.93359 6.74707 2.80078 1.87012 1.84717 2.80469 4.10352 2.80469 6.76758 0 2.68359-0.91504 4.91113-2.74609 6.68066-1.92773 1.90576-4.19629 2.8584-6.80566 2.8584s-4.8584-0.94287-6.74658-2.82959c-1.88965-1.88623-2.8335-4.12256-2.8335-6.70947 0-2.58643 0.9541-4.84229 2.8623-6.76758 1.83057-1.86719 4.07031-2.80078 6.71777-2.80078z" clip-rule="evenodd" fill-rule="evenodd"/></g><rect x="89.605591" y="57.666405" width="16.331699" height="24.997498" fill="#fff" style="mix-blend-mode:normal;paint-order:markers fill stroke"/><g><circle cx="91.438736" cy="81.164062" r=".83325088" fill="#131415" style="paint-order:markers fill stroke"/><text x="92.475288" y="81.699631" fill="#000000" font-family="sans-serif" font-size="1.52778px" stroke-width=".104167" style="line-height:1.25;white-space:pre" xml:space="preserve"><tspan stroke-width=".104167"><tspan font-family="Lato" stroke-width=".104167">Bicycle Express</tspan></tspan></text></g><g transform="translate(7.1095885,2.3645613)"><text x="85.457367" y="77.372368" fill="#000000" font-family="sans-serif" font-size="1.52778px" stroke-width=".104167" style="line-height:1.25;white-space:pre" xml:space="preserve"><tspan stroke-width=".104167"><tspan font-family="Lato" stroke-width=".104167">Tremont</tspan></tspan></text><g transform="translate(.04114189 .04963906)"><circle cx="84.28801" cy="76.781509" r=".83325154" fill="#0387ce" style="paint-order:markers fill stroke"/><text transform="matrix(.10416667 0 0 .10416667 55.84496 -8.9988107)" x="15.952802" fill="#000000" font-family="sans-serif" font-size="13.3333px" letter-spacing="-.5px" text-align="center" style="line-height:1.25;shape-inside:url(#rect19825-0-2-4);white-space:pre" xml:space="preserve"><tspan x="266.7222" y="828.15773"><tspan fill="#ffffff" font-family="Rubik">11</tspan></tspan></text></g></g><g transform="translate(7.4428872,2.0312583)"><text x="85.032402" y="75.721146" fill="#000000" font-family="sans-serif" font-size="1.52778px" stroke-width=".104167" style="line-height:1.25;white-space:pre" xml:space="preserve"><tspan stroke-width=".104167"><tspan font-family="Lato" stroke-width=".104167">Blackwoods</tspan></tspan></text><circle cx="83.99585" cy="75.16465" r=".83325088" fill="#f3008e" style="paint-order:markers fill stroke"/><text transform="matrix(.10416667 0 0 .10416667 55.609363 -10.615673)" x="33.869053" fill="#000000" font-family="sans-serif" font-size="13.3333px" letter-spacing="-.5px" text-align="center" style="line-height:1.25;shape-inside:url(#rect19825-0-2-4-6);white-space:pre" xml:space="preserve"><tspan x="265.42887" y="828.15773"><tspan fill="#ffffff" font-family="Rubik">10</tspan></tspan></text></g><g transform="translate(7.1095872,2.6978611)"><text x="85.457367" y="73.039467" fill="#000000" font-family="sans-serif" font-size="1.52778px" stroke-width=".104167" style="line-height:1.25;white-space:pre" xml:space="preserve"><tspan stroke-width=".104167"><tspan font-family="Lato" stroke-width=".104167">Trenton</tspan></tspan></text><g transform="translate(-.01334015 -.01207357)"><circle cx="84.342491" cy="72.510323" r=".833251" fill="#91745e" style="paint-order:markers fill stroke"/><text transform="matrix(.10416667 0 0 .10416667 55.947476 -13.263058)" x="7.2399817" fill="#000000" font-family="sans-serif" font-size="13.3333px" letter-spacing="-.5px" text-align="center" style="line-height:1.25;shape-inside:url(#rect19825-0-2-4-6-1);white-space:pre" xml:space="preserve"><tspan x="268.53218" y="828.15773"><tspan fill="#ffffff" font-family="Rubik">9</tspan></tspan></text></g><text x="85.435699" y="71.054947" fill="#000000" font-family="sans-serif" font-size="1.52778px" stroke-width=".104167" style="line-height:1.25;white-space:pre" xml:space="preserve"><tspan stroke-width=".104167"><tspan font-family="Lato" stroke-width=".104167">Schoodic</tspan></tspan></text><g transform="translate(.02798816 .1090906)"><circle cx="84.301163" cy="70.389359" r=".83325088" fill="#753bdc" style="paint-order:markers fill stroke"/><text transform="matrix(.10416667 0 0 .10416667 55.900587 -15.390962)" x="7.4133148" fill="#000000" font-family="sans-serif" font-size="13.3333px" letter-spacing="-.5px" text-align="center" style="line-height:1.25;shape-inside:url(#rect19825-0-2-4-6-1-7);white-space:pre" xml:space="preserve"><tspan x="268.27218" y="828.15773"><tspan fill="#ffffff" font-family="Rubik">8</tspan></tspan></text></g><text x="85.435699" y="69.055145" fill="#000000" font-family="sans-serif" font-size="1.52778px" stroke-width=".104167" style="line-height:1.25;white-space:pre" xml:space="preserve"><tspan stroke-width=".104167"><tspan font-family="Lato" stroke-width=".104167">Southwest Harbor</tspan></tspan></text><g transform="translate(-.14477185 .04963636)"><circle cx="84.473923" cy="68.449013" r=".83325088" fill="#d133ac" style="paint-order:markers fill stroke"/><text transform="matrix(.10416667 0 0 .10416667 56.071962 -17.331311)" x="9.902317" fill="#000000" font-family="sans-serif" font-size="13.3333px" letter-spacing="-.5px" text-align="center" style="line-height:1.25;shape-inside:url(#rect19825-0-2-4-6-1-7-4);white-space:pre" xml:space="preserve"><tspan x="269.02552" y="828.15773"><tspan fill="#ffffff" font-family="Rubik">7</tspan></tspan></text></g></g><g transform="translate(7.1095872,3.0311611)"><text x="85.3657" y="66.722046" fill="#000000" font-family="sans-serif" font-size="1.52778px" stroke-width=".104167" style="line-height:1.25;white-space:pre" xml:space="preserve"><tspan stroke-width=".104167"><tspan font-family="Lato" stroke-width=".104167">Northeast Harbor</tspan></tspan></text><g transform="translate(.23685809 .05727275)"><circle cx="84.092293" cy="66.108276" r=".83325088" fill="#0aaeed" style="paint-order:markers fill stroke"/><text transform="matrix(.10416667 0 0 .10416667 55.686163 -19.678994)" x="7.0956573" fill="#000000" font-family="sans-serif" font-size="13.3333px" letter-spacing="-.5px" text-align="center" style="line-height:1.25;shape-inside:url(#rect19825-0-2-4-6-1-7-4-0);white-space:pre" xml:space="preserve"><tspan x="268.46551" y="828.15773"><tspan fill="#ffffff" font-family="Rubik">6</tspan></tspan></text></g><text x="85.444031" y="64.722244" fill="#000000" font-family="sans-serif" font-size="1.52778px" stroke-width=".104167" style="line-height:1.25;white-space:pre" xml:space="preserve"><tspan stroke-width=".104167"><tspan font-family="Lato" stroke-width=".104167">Jordan Pond</tspan></tspan></text><g transform="translate(-.10616711 .05803733)"><circle cx="84.435318" cy="64.107712" r=".83325088" fill="#9180e7" style="paint-order:markers fill stroke"/><text transform="matrix(.10416667 0 0 .10416667 56.036234 -21.680252)" x="7.009943" fill="#000000" font-family="sans-serif" font-size="13.3333px" letter-spacing="-.5px" text-align="center" style="line-height:1.25;shape-inside:url(#rect19825-0-2-4-6-1-7-4-0-7);white-space:pre" xml:space="preserve"><tspan x="268.51218" y="828.15773"><tspan fill="#ffffff" font-family="Rubik">5</tspan></tspan></text></g></g><g transform="translate(7.1095872,3.3644611)"><text x="85.3657" y="62.264248" fill="#000000" font-family="sans-serif" font-size="1.52778px" stroke-width=".104167" style="line-height:1.25;white-space:pre" xml:space="preserve"><tspan stroke-width=".104167"><tspan font-family="Lato" stroke-width=".104167">Loop Road</tspan></tspan></text><g transform="translate(.04819843 .05196751)"><circle cx="84.280952" cy="61.780682" r=".83325088" fill="#f3b209" style="paint-order:markers fill stroke"/><text transform="matrix(.10416667 0 0 .10416667 55.881766 -23.999642)" x="7.3423233" fill="#000000" font-family="sans-serif" font-size="13.3333px" letter-spacing="-.5px" text-align="center" style="line-height:1.25;shape-inside:url(#rect19825-0-2-4-6-1-7-4-0-7-4);white-space:pre" xml:space="preserve"><tspan x="268.29885" y="828.15773"><tspan fill="#ffffff" font-family="Rubik">4</tspan></tspan></text></g><text x="85.435699" y="60.389343" fill="#000000" font-family="sans-serif" font-size="1.52778px" stroke-width=".104167" style="line-height:1.25;white-space:pre" xml:space="preserve"><tspan stroke-width=".104167"><tspan font-family="Lato" stroke-width=".104167">Sand Beach</tspan></tspan></text><g transform="translate(-.0577052 .12555466)"><circle cx="84.386856" cy="59.707294" r=".83325088" fill="#276d4b" style="paint-order:markers fill stroke"/><text transform="matrix(.10416667 0 0 .10416667 55.991144 -26.079975)" x="7.0689907" fill="#000000" font-family="sans-serif" font-size="13.3333px" letter-spacing="-.5px" text-align="center" style="line-height:1.25;shape-inside:url(#rect19825-0-2-4-6-1-7-4-0-7-4-9);white-space:pre" xml:space="preserve"><tspan x="268.44552" y="828.15773"><tspan fill="#ffffff" font-family="Rubik">3</tspan></tspan></text></g></g><g><text x="92.472374" y="61.754005" fill="#000000" font-family="sans-serif" font-size="1.52778px" stroke-width=".104167" style="line-height:1.25;white-space:pre" xml:space="preserve"><tspan stroke-width=".104167"><tspan font-family="Lato" stroke-width=".104167">Eden Street</tspan></tspan></text><g transform="translate(7.1095907,3.3644604)"><circle cx="84.329147" cy="57.83305" r=".83325088" fill="#539fb2" style="paint-order:markers fill stroke"/><text transform="matrix(.10416667 0 0 .10416667 55.930656 -27.93894)" x="6.9156575" fill="#000000" font-family="sans-serif" font-size="13.3333px" letter-spacing="-.5px" text-align="center" style="line-height:1.25;shape-inside:url(#rect19825-0-2-4-6-1-7-4-0-7-4-9-3);white-space:pre" xml:space="preserve"><tspan x="268.51886" y="828.15773"><tspan fill="#ffffff" font-family="Rubik">2</tspan></tspan></text></g></g><g><text x="92.472374" y="59.754204" fill="#000000" font-family="sans-serif" font-size="1.52778px" stroke-width=".104167" style="line-height:1.25;white-space:pre" xml:space="preserve"><tspan stroke-width=".104167"><tspan font-family="Lato" stroke-width=".104167">Bar Harbor Road</tspan></tspan></text><g transform="translate(7.1095907,3.3644621)"><circle cx="84.329147" cy="55.833248" r=".83325088" fill="#ff4703" style="paint-order:markers fill stroke"/><text transform="matrix(.10416667 0 0 .10416667 55.873102 -29.947075)" x="5.889946" fill="#000000" font-family="sans-serif" font-size="13.3333px" letter-spacing="-.5px" text-align="center" style="line-height:1.25;shape-inside:url(#rect19825-0-2-4-6-1-7-4-0-7-4-9-3-0);white-space:pre" xml:space="preserve"><tspan x="269.55885" y="828.15773"><tspan fill="#ffffff" font-family="Rubik">1</tspan></tspan></text></g></g><rect x="89.605591" y="54.666702" width="16.331699" height="2.9996998" style="paint-order:markers fill stroke"/><g transform="translate(1.9395525 .00451522)"><text x="95.782448" y="56.779819" fill="#000000" font-family="sans-serif" font-size="2.22222px" stroke-width=".104167" text-align="center" style="line-height:1.25;white-space:pre" xml:space="preserve"><tspan fill="#ffffff" font-family="Lato" font-weight="bold" stroke-width=".104167" text-align="center" text-anchor="middle">Key to routes</tspan></text></g></g><g transform="translate(5019.8157,2745)" display="none"><path d="m-4959.0902-2695.4055 0.4714 0.4973" display="inline" fill="none" stroke="#7e66c1" stroke-opacity=".873817" stroke-width=".46222"/><g fill="#000000" font-family="sans-serif" font-size="40px"><text transform="matrix(.10416667 0 0 .10416667 -5050.4917 -2743.3362)" x="61.220039" display="inline" style="line-height:1.25;shape-inside:url(#rect857);white-space:pre" xml:space="preserve"><tspan x="334.97198" y="913.97173"><tspan font-family="'Merriweather Sans'" text-align="center" text-anchor="middle">Seawall
</tspan></tspan><tspan x="283.30202" y="964.15227"><tspan font-family="'Merriweather Sans'" text-align="center" text-anchor="middle">Campground</tspan></tspan></text><text transform="matrix(.10416667 0 0 .10416667 -5051.0927 -2729.2778)" x="61.220039" display="inline" style="line-height:1.25;shape-inside:url(#rect857-2);white-space:pre" xml:space="preserve"><tspan x="333.85194" y="914.51039"><tspan font-family="Mulish" text-align="center" text-anchor="middle">Seawall
</tspan></tspan><tspan x="287.0083" y="965.04902"><tspan font-family="Mulish" text-align="center" text-anchor="middle">Campground</tspan></tspan></text><text transform="matrix(.10416667 0 0 .10416667 -5015.6 -2728.9118)" x="61.220039" display="inline" style="line-height:1.25;shape-inside:url(#rect857-2-0);white-space:pre" xml:space="preserve"><tspan x="341.03193" y="914.67852"><tspan font-family="Lato" text-align="center" text-anchor="middle">Seawall
</tspan></tspan><tspan x="293.67204" y="965.3853"><tspan font-family="Lato" text-align="center" text-anchor="middle">Campground</tspan></tspan></text><text transform="matrix(.10416667 0 0 .10416667 -4985.2786 -2729.4606)" x="61.220039" display="inline" style="line-height:1.25;shape-inside:url(#rect857-2-0-2);white-space:pre" xml:space="preserve"><tspan x="335.29199" y="913.97173"><tspan font-family="'Nunito Sans'" text-align="center" text-anchor="middle">Seawall
</tspan></tspan><tspan x="291.15194" y="965.81682"><tspan font-family="'Nunito Sans'" text-align="center" text-anchor="middle">Campground</tspan></tspan></text><text transform="matrix(.10416667 0 0 .10416667 -5014.0163 -2743.9921)" x="61.220039" display="inline" style="line-height:1.25;shape-inside:url(#rect857-2-0-0);white-space:pre" xml:space="preserve"><tspan x="337.77246" y="913.97173"><tspan font-family="'Open Sans'" text-align="center" text-anchor="middle">Seawall
</tspan></tspan><tspan x="285.49707" y="964.07018"><tspan font-family="'Open Sans'" text-align="center" text-anchor="middle">Campground</tspan></tspan></text></g><g transform="translate(-2.0663072,-6.9677168)" display="inline" fill="#ff6d4b" fill-opacity=".332547"><rect transform="rotate(-45)" x="-1606.442" y="-5388.0815" width=".66660005" height=".66660005" display="inline" style="paint-order:markers fill stroke"/><rect transform="rotate(-45)" x="-1607.1086" y="-5388.0815" width=".66660005" height=".66660005" display="inline" style="paint-order:markers fill stroke"/><rect transform="rotate(-45)" x="-1607.1086" y="-5388.748" width=".66660005" height=".66660005" display="inline" style="paint-order:markers fill stroke"/></g><rect transform="rotate(45,1.4583334e-5,3.5207282e-5)" x="-5393.6357" y="1603.9043" width="1.3334545" height="1.3330958" display="inline" fill="#80ffff" fill-opacity=".8" stroke-width="0" style="paint-order:markers fill stroke"/><rect transform="rotate(135,1.4583334e-5,6.0406146e-6)" x="1604.9066" y="5391.8999" width=".66664773" height=".66683906" display="inline" fill="#ff80ff" fill-opacity=".8" stroke-width="0" style="paint-order:markers fill stroke"/><path transform="translate(-5021.5235,-2743.5152)" d="m67.290283 49.781645 0.235678 0.235679 1.179432-1.179432-0.235678-0.235679z" color="#000000" display="inline" fill="#83a657" fill-opacity=".862613" fill-rule="evenodd" stroke-width=".705352" style="-inkscape-stroke:none"/><path transform="translate(-5021.5235,-2743.5152)" d="m73.53485 65.848747h0.669921v-1.667969h-0.669921z" color="#000000" display="inline" fill="#83a657" fill-opacity=".862613" fill-rule="evenodd" style="-inkscape-stroke:none"/></g></svg>
